<svg width="507" height="480" viewBox="0 0 507 480" xmlns="http://www.w3.org/2000/svg" xmlns:xlink="http://www.w3.org/1999/xlink"><title>hero</title><defs><path id="path-1" d="M74.882.448H0v150.446h74.882z"/><path id="path-3" d="M.454.448h66.699v150.446H.454z"/><path id="path-5" d="M40.03.448H.783v150.445H40.03z"/><path id="path-7" d="M70.873.448H.323v150.685h70.55z"/><path id="path-9" d="M74.45 150.893V.448H.77v150.445z"/><path id="path-11" d="M.247 55.888h24.349V.162H.246z"/><path id="path-13" d="M.337 55.888h26.668V.162H.337z"/><path id="path-15" d="M.227 55.888h27.738V.162H.227z"/><path id="path-17" d="M.865 55.888h24.35V.162H.865z"/><path id="path-19" d="M.578 55.888H33.13V.162H.578z"/><path id="path-21" d="M.77 55.888h27.914V.162H.769z"/><path id="path-23" d="M0 220.552h505.384V.387H0z"/><path id="path-25" d="M0 220.552h505.384V.387H0z"/><path id="path-27" d="M0 220.552h505.384V.387H0z"/><path id="path-29" d="M0 220.552h505.384V.387H0z"/><path id="path-31" d="M0 220.552h505.384V.387H0z"/><path id="path-33" d="M0 220.552h505.384V.387H0z"/><path id="path-35" d="M0 220.552h505.384V.387H0z"/></defs><g id="Page-1" fill="none" fill-rule="evenodd"><g id="hero"><path d="M.056 17.624V6.168C.056 2.392 1.784.344 5.432.344c3.456 0 5.248 2.048 5.248 5.632v.576H7.352v-.8c0-1.6-.704-2.208-1.824-2.208-1.248 0-1.952.608-1.952 2.752v4.064h.064c.608-1.28 1.632-1.952 3.2-1.952 2.592 0 3.904 1.824 3.904 5.12v4.096c0 3.584-1.888 5.632-5.344 5.632-3.456 0-5.344-2.048-5.344-5.632zM5.4 11.608c-1.12 0-1.824.608-1.824 2.208v4.032c0 1.6.704 2.176 1.824 2.176s1.824-.576 1.824-2.176v-4.032c0-1.6-.704-2.208-1.824-2.208zM18.136.6c3.52 0 5.248 1.952 5.248 5.536v2.912c0 3.584-1.728 5.536-5.248 5.536h-1.664V23h-3.52V.6h5.184zm0 3.2h-1.664v7.584h1.664c1.12 0 1.728-.512 1.728-2.112v-3.36c0-1.6-.608-2.112-1.728-2.112zM29.88.6h-4.896V23h3.072V7.16h.064L30.68 23h3.328l2.368-16.064h.064V23h3.328V.6h-4.896l-2.368 15.904h-.064L29.88.6zm12.288 12.8h6.4v-3.2h-6.4v3.2zm19.136-7.424v11.456c0 3.776-1.728 5.824-5.376 5.824-3.456 0-5.248-2.048-5.248-5.632v-.576h3.328v.8c0 1.6.704 2.208 1.824 2.208 1.248 0 1.952-.608 1.952-2.752V13.24h-.064c-.608 1.28-1.632 1.952-3.2 1.952-2.592 0-3.904-1.824-3.904-5.12V5.976c0-3.584 1.888-5.632 5.344-5.632 3.456 0 5.344 2.048 5.344 5.632zm-5.344 6.016c1.12 0 1.824-.608 1.824-2.208V5.752c0-1.6-.704-2.176-1.824-2.176s-1.824.576-1.824 2.176v4.032c0 1.6.704 2.208 1.824 2.208zM68.824.6c3.52 0 5.248 1.952 5.248 5.536v2.912c0 3.584-1.728 5.536-5.248 5.536H67.16V23h-3.52V.6h5.184zm0 3.2H67.16v7.584h1.664c1.12 0 1.728-.512 1.728-2.112v-3.36c0-1.6-.608-2.112-1.728-2.112zM80.568.6h-4.896V23h3.072V7.16h.064L81.368 23h3.328l2.368-16.064h.064V23h3.328V.6H85.56l-2.368 15.904h-.064L80.568.6z" transform="translate(415 379)" id="6pm-9pm" fill="#FFF"/><path d="M30.428 69H44.59l7.566-67.9h-9.312l-5.432 53.932h-.194L31.98 1.1H21.698l-5.044 53.544h-.194L10.834 1.1H.455L8.021 69h14.647l3.783-36.181h.194L30.428 69zm37.733-58.2h18.43V1.1h-29.1V69h29.1v-9.7h-18.43V39.415h14.647v-9.7H68.161V10.8zM108.222 69h10.67V1.1h-10.67V69zm41.225 0h10.961V1.1h-9.506v40.643h-.194L139.941 1.1h-13.386V69h9.603V19.821h.194L149.447 69zm26.578-67.9h-10.767L175.734 69h15.908l10.476-67.9h-9.797l-8.051 55.387h-.194L176.025 1.1zm31.04 67.9h10.67V1.1h-10.67V69zm15.326-58.2h11.155V69h10.67V10.8h11.155V1.1h-32.98v9.7zm48.306 0h18.43V1.1h-29.1V69h29.1v-9.7h-18.43V39.415h14.647v-9.7h-14.647V10.8zM320.749 69h10.67V46.496L344.902 1.1h-10.185l-8.051 30.943h-.194L318.421 1.1h-11.155l13.483 45.396V69zm36.763-52.283v36.666c0 4.85 2.134 6.693 5.529 6.693s5.529-1.843 5.529-6.693V16.717c0-4.85-2.134-6.693-5.529-6.693s-5.529 1.843-5.529 6.693zm-10.67 35.987V17.396c0-10.864 5.723-17.072 16.199-17.072 10.476 0 16.199 6.208 16.199 17.072v35.308c0 10.864-5.723 17.072-16.199 17.072-10.476 0-16.199-6.208-16.199-17.072zm38.8-51.604v51.701c0 10.864 5.432 17.072 15.908 17.072 10.476 0 15.908-6.208 15.908-17.072V1.1H407.37v52.38c0 4.85-2.134 6.596-5.529 6.596s-5.529-1.746-5.529-6.596V1.1h-10.67zm51.022 9.7h11.155V69h10.67V10.8h11.155V1.1h-32.98v9.7zm47.433 5.917v36.666c0 4.85 2.134 6.693 5.529 6.693s5.529-1.843 5.529-6.693V16.717c0-4.85-2.134-6.693-5.529-6.693s-5.529 1.843-5.529 6.693zm-10.67 35.987V17.396c0-10.864 5.723-17.072 16.199-17.072 10.476 0 16.199 6.208 16.199 17.072v35.308c0 10.864-5.723 17.072-16.199 17.072-10.476 0-16.199-6.208-16.199-17.072z" id="WE-INVITE-YOU-TO" fill="#FFF"/><g id="Page-1" transform="translate(1 111)"><g id="Group-3" transform="translate(0 .94)"><g id="Fill-1-Clipped"><mask id="mask-2" fill="#fff"><use xlink:href="#path-1"/></mask><path d="M52.97 126.86V24.482c0-2.886-.48-4.766-1.443-5.65-.965-.878-2.891-1.32-5.778-1.32h-23.84V133.83h23.84c2.887 0 4.813-.44 5.778-1.321.962-.88 1.443-2.764 1.443-5.65zM0 .448h52.49c14.928 0 22.392 7.052 22.392 21.148v108.15c0 14.1-7.464 21.148-22.393 21.148H0V.448z" id="Fill-1" fill="#FEFEFE" fill-rule="nonzero" mask="url(#mask-2)"/></g></g><path id="Fill-4" fill="#FEFEFE" fill-rule="nonzero" d="M125.202 134.288h43.581v17.545H103.29V1.387h63.807V18.93h-41.895v46.385h34.674v17.542h-34.674z"/><g id="Group-8" transform="translate(183.495 .94)"><g id="Fill-6-Clipped"><mask id="mask-4" fill="#fff"><use xlink:href="#path-3"/></mask><path d="M22.126 24.962v24.514H.454v-27.88C.454 7.5 7.92.447 22.847.447h20.708C58.64.447 66.188 7.5 66.188 21.596v15.143c0 11.215-2.812 22.191-8.427 32.925L25.255 133.35h41.898v17.545H.695v-16.823l36.84-69.216c4.492-8.49 6.741-18.101 6.741-28.84V24.963c0-2.886-.443-4.766-1.323-5.647-.883-.879-2.852-1.324-5.899-1.324h-7.706c-2.888 0-4.814.445-5.78 1.324-.961.88-1.442 2.76-1.442 5.647" id="Fill-6" fill="#9D7842" fill-rule="nonzero" mask="url(#mask-4)"/></g></g><g id="Group-11" transform="translate(265.511 .94)"><g id="Fill-9-Clipped"><mask id="mask-6" fill="#fff"><use xlink:href="#path-5"/></mask><path id="Fill-9" fill="#9D7842" fill-rule="nonzero" mask="url(#mask-6)" d="M40.03.448v150.445H18.118V17.99H.783V.448z"/></g></g><g id="Group-14" transform="translate(333.626 .94)"><g id="Fill-12-Clipped"><mask id="mask-8" fill="#fff"><use xlink:href="#path-7"/></mask><path d="M70.873 44.427H48.961V24.482c0-2.886-.48-4.766-1.446-5.65-.962-.878-2.887-1.32-5.776-1.32H29.46c-2.89 0-4.817.442-5.778 1.32-.965.884-1.446 2.764-1.446 5.65V127.1c0 2.885.48 4.77 1.446 5.65.961.881 2.888 1.32 5.778 1.32h12.28c2.89 0 4.814-.439 5.776-1.32.965-.88 1.446-2.765 1.446-5.65V90.331h-12.04V73.507h33.952v56.238c0 14.262-7.465 21.388-22.393 21.388H22.716c-14.929 0-22.393-7.126-22.393-21.388V21.596C.323 7.5 7.787.448 22.716.448H48.48c14.928 0 22.393 7.052 22.393 21.148v22.831z" id="Fill-12" fill="#FEFEFE" fill-rule="nonzero" mask="url(#mask-8)"/></g></g><g id="Group-17" transform="translate(430.934 .94)"><g id="Fill-15-Clipped"><mask id="mask-10" fill="#fff"><use xlink:href="#path-9"/></mask><path id="Fill-15" fill="#FEFEFE" fill-rule="nonzero" mask="url(#mask-10)" d="M54.465.448h19.986v150.445H52.538L20.756 42.264v108.63H.771V.447h22.874l30.82 105.504z"/></g></g><g id="Group-20" transform="translate(0 165.664)"><g id="Fill-18-Clipped"><mask id="mask-12" fill="#fff"><use xlink:href="#path-11"/></mask><path id="Fill-18" fill="#FEFEFE" fill-rule="nonzero" mask="url(#mask-12)" d="M24.596 6.66H8.364v18.337h12.843v6.321H8.364v24.57H.247V.162h24.349z"/></g></g><path d="M37.526 202.145h9.723l-5.085-29.377-4.638 29.377zm13.021 19.407l-2.23-12.907H36.546l-2.05 12.907h-8.027l9.899-55.725H48.05l10.613 55.725h-8.117z" id="Fill-21" fill="#FEFEFE" fill-rule="nonzero"/><g id="Group-25" transform="translate(63.945 165.664)"><g id="Fill-23-Clipped"><mask id="mask-14" fill="#fff"><use xlink:href="#path-13"/></mask><path d="M18.888.162h8.117v47.892c0 5.223-2.797 7.834-8.384 7.834h-9.9c-5.59 0-8.384-2.611-8.384-7.834V.162h8.117v46.645c0 1.068.178 1.767.535 2.093.357.327 1.07.49 2.14.49h5.084c1.128 0 1.857-.163 2.184-.49.327-.326.49-1.025.49-2.093V.162z" id="Fill-23" fill="#FEFEFE" fill-rule="nonzero" mask="url(#mask-14)"/></g></g><g id="Group-28" transform="translate(107.038 165.664)"><g id="Fill-26-Clipped"><mask id="mask-16" fill="#fff"><use xlink:href="#path-15"/></mask><path d="M19.848 46.984V33.276c0-1.068-.178-1.765-.535-2.091-.357-.326-1.07-.49-2.14-.49h-8.92v18.872h8.92c1.07 0 1.783-.163 2.14-.49.357-.326.535-1.023.535-2.093zm0-25.191V9.063c0-1.067-.178-1.765-.535-2.091-.357-.326-1.07-.49-2.14-.49h-8.92v17.893h8.92c1.07 0 1.783-.164 2.14-.49.357-.326.535-1.022.535-2.092zM.227.162H19.58c5.587 0 8.384 2.613 8.384 7.834V22.15c0 3.145-1.191 4.985-3.568 5.518 2.377.595 3.568 2.314 3.568 5.163v15.223c0 5.223-2.797 7.834-8.384 7.834H.227V.162z" id="Fill-26" fill="#9D7842" fill-rule="nonzero" mask="url(#mask-16)"/></g></g><g id="Group-31" transform="translate(144.571 165.664)"><g id="Fill-29-Clipped"><mask id="mask-18" fill="#fff"><use xlink:href="#path-17"/></mask><path id="Fill-29" fill="#9D7842" fill-rule="nonzero" mask="url(#mask-18)" d="M25.215 6.66H8.982v18.337h12.843v6.321H8.982v24.57H.865V.162h24.35z"/></g></g><path d="M183.037 202.145h9.723l-5.085-29.377-4.638 29.377zm13.021 19.407l-2.23-12.907h-11.77l-2.053 12.907h-8.026l9.899-55.725h11.684l10.613 55.725h-8.117z" id="Fill-32" fill="#9D7842" fill-rule="nonzero"/><path id="Fill-34" fill="#FEFEFE" fill-rule="nonzero" d="M225.67 215.054h16.142v6.498h-24.259v-55.726h23.636v6.499H225.67v17.181h12.843v6.498H225.67z"/><g id="Group-38" transform="translate(244.66 165.664)"><g id="Fill-36-Clipped"><mask id="mask-20" fill="#fff"><use xlink:href="#path-19"/></mask><path id="Fill-36" fill="#FEFEFE" fill-rule="nonzero" mask="url(#mask-20)" d="M21.18 27.402l11.95 28.486h-8.915l-7.494-21.186-7.493 21.186H.578L12.35 27.402 1.38.162h8.919l6.422 20.03L23.23.162h8.742z"/></g></g><g id="Group-41" transform="translate(282.192 165.664)"><g id="Fill-39-Clipped"><mask id="mask-22" fill="#fff"><use xlink:href="#path-21"/></mask><path id="Fill-39" fill="#FEFEFE" fill-rule="nonzero" mask="url(#mask-22)" d="M20.659.162h8.025v55.726h-8.025V31.407H8.797v24.48H.769V.163h8.028v24.747h11.862z"/></g></g><g id="Fill-42-Clipped" transform="translate(0 1)"><mask id="mask-24" fill="#fff"><use xlink:href="#path-23"/></mask><path id="Fill-42" fill="#FEFEFE" fill-rule="nonzero" mask="url(#mask-24)" d="M321.046 220.552h8.025v-55.726h-8.025z"/></g><g id="Fill-44-Clipped" transform="translate(0 1)"><mask id="mask-26" fill="#fff"><use xlink:href="#path-25"/></mask><path d="M358.86 211.649V197.94c0-1.068-.179-1.765-.536-2.09-.357-.327-1.069-.49-2.14-.49h-8.918v18.87h8.917c1.072 0 1.784-.161 2.141-.489.357-.326.535-1.022.535-2.092zm0-25.192v-12.73c0-1.067-.179-1.765-.536-2.09-.357-.327-1.069-.49-2.14-.49h-8.918v17.892h8.917c1.072 0 1.784-.163 2.141-.49.357-.325.535-1.022.535-2.092zm-19.622-21.63h19.356c5.587 0 8.382 2.612 8.382 7.833v14.154c0 3.145-1.191 4.985-3.568 5.518 2.377.595 3.568 2.314 3.568 5.163v15.224c0 5.222-2.795 7.833-8.382 7.833h-19.356v-55.726z" id="Fill-44" fill="#FEFEFE" fill-rule="nonzero" mask="url(#mask-26)"/></g><g id="Fill-45-Clipped" transform="translate(0 1)"><mask id="mask-28" fill="#fff"><use xlink:href="#path-27"/></mask><path id="Fill-45" fill="#FEFEFE" fill-rule="nonzero" mask="url(#mask-28)" d="M376.607 220.552h8.025v-55.726h-8.025z"/></g><g id="Fill-46-Clipped" transform="translate(0 1)"><mask id="mask-30" fill="#fff"><use xlink:href="#path-29"/></mask><path id="Fill-46" fill="#FEFEFE" fill-rule="nonzero" mask="url(#mask-30)" d="M417.366 164.826v6.498H408v49.228h-8.027v-49.228h-9.364v-6.498z"/></g><g id="Fill-47-Clipped" transform="translate(0 1)"><mask id="mask-32" fill="#fff"><use xlink:href="#path-31"/></mask><path id="Fill-47" fill="#FEFEFE" fill-rule="nonzero" mask="url(#mask-32)" d="M423.341 220.552h8.025v-55.726h-8.025z"/></g><g id="Fill-48-Clipped" transform="translate(0 1)"><mask id="mask-34" fill="#fff"><use xlink:href="#path-33"/></mask><path d="M459.64 211.472v-37.566c0-1.07-.18-1.766-.536-2.093-.357-.326-1.072-.489-2.14-.489h-5.173c-1.072 0-1.77.163-2.097.489-.326.327-.49 1.024-.49 2.093v37.566c0 1.067.164 1.766.49 2.092.327.327 1.025.49 2.097.49h5.172c1.07 0 1.784-.163 2.14-.49.357-.326.536-1.025.536-2.092m-10.167-46.645h9.899c5.528 0 8.293 2.612 8.293 7.832v40.06c0 5.223-2.765 7.832-8.293 7.832h-9.9c-5.589 0-8.384-2.61-8.384-7.832v-40.06c0-5.22 2.795-7.832 8.385-7.832" id="Fill-48" fill="#FEFEFE" fill-rule="nonzero" mask="url(#mask-34)"/></g><g id="Fill-49-Clipped" transform="translate(0 1)"><mask id="mask-36" fill="#fff"><use xlink:href="#path-35"/></mask><path id="Fill-49" fill="#FEFEFE" fill-rule="nonzero" mask="url(#mask-36)" d="M496.65 164.826h7.402v55.726h-8.117l-11.773-40.236v40.236h-7.402v-55.726h8.474l11.415 39.078z"/></g></g><path d="M8.16 14.648v3.2c0 1.6-.704 2.176-1.824 2.176s-1.824-.576-1.824-2.176V5.752c0-1.6.704-2.208 1.824-2.208s1.824.608 1.824 2.208v2.4h3.328V5.976c0-3.584-1.792-5.632-5.248-5.632C2.784.344.992 2.392.992 5.976v11.648c0 3.584 1.792 5.632 5.248 5.632 3.456 0 5.248-2.048 5.248-5.632v-2.976H8.16zM13.632 23h9.312v-3.2h-5.792V.6h-3.52V23zM32.288.6L35.872 23H32.32l-.608-4.064h-4.32L26.784 23h-3.232L27.136.6h5.152zm-2.784 3.968L27.84 15.896h3.392L29.568 4.568h-.064zm7.552 1.408c0 2.56.928 4.416 3.872 7.008 2.304 2.016 3.008 3.232 3.008 4.864 0 1.6-.704 2.176-1.824 2.176s-1.824-.576-1.824-2.176v-1.6H36.96v1.376c0 3.584 1.792 5.632 5.248 5.632 3.456 0 5.248-2.048 5.248-5.632 0-2.56-.928-4.416-3.872-7.008-2.304-2.016-3.008-3.232-3.008-4.864 0-1.6.64-2.208 1.76-2.208s1.76.608 1.76 2.208v.928h3.328v-.704c0-3.584-1.76-5.632-5.184-5.632-3.424 0-5.184 2.048-5.184 5.632zm11.968 0c0 2.56.928 4.416 3.872 7.008 2.304 2.016 3.008 3.232 3.008 4.864 0 1.6-.704 2.176-1.824 2.176s-1.824-.576-1.824-2.176v-1.6h-3.328v1.376c0 3.584 1.792 5.632 5.248 5.632 3.456 0 5.248-2.048 5.248-5.632 0-2.56-.928-4.416-3.872-7.008-2.304-2.016-3.008-3.232-3.008-4.864 0-1.6.64-2.208 1.76-2.208s1.76.608 1.76 2.208v.928h3.328v-.704c0-3.584-1.76-5.632-5.184-5.632-3.424 0-5.184 2.048-5.184 5.632zm20.608-.224v12.096c0 1.6.704 2.208 1.824 2.208s1.824-.608 1.824-2.208V5.752c0-1.6-.704-2.208-1.824-2.208s-1.824.608-1.824 2.208zm-3.52 11.872V5.976c0-3.584 1.888-5.632 5.344-5.632 3.456 0 5.344 2.048 5.344 5.632v11.648c0 3.584-1.888 5.632-5.344 5.632-3.456 0-5.344-2.048-5.344-5.632zM82.592 3.8h5.792V.6h-9.312V23h3.52v-9.248h4.544v-3.2h-4.544V3.8zm19.424 2.304c0 2.4-.768 4.16-3.456 7.008-2.624 2.752-3.52 4.64-3.52 7.136V23h10.176v-3.2H98.56c-.032-.16-.032-.32-.032-.48 0-1.184.576-2.24 2.656-4.48 3.264-3.488 4.352-5.888 4.352-8.864 0-3.584-1.792-5.632-5.248-5.632-3.456 0-5.248 2.048-5.248 5.632v2.176h3.328v-2.4c0-1.6.704-2.208 1.824-2.208s1.824.544 1.824 2.56zm8.928-.352v12.096c0 1.6.704 2.208 1.824 2.208s1.824-.608 1.824-2.208V5.752c0-1.6-.704-2.208-1.824-2.208s-1.824.608-1.824 2.208zm-3.52 11.872V5.976c0-3.584 1.888-5.632 5.344-5.632 3.456 0 5.344 2.048 5.344 5.632v11.648c0 3.584-1.888 5.632-5.344 5.632-3.456 0-5.344-2.048-5.344-5.632zM122.56 5.912h2.72V23h3.52V.6h-2.368c-.544 1.504-1.152 2.816-3.872 2.816v2.496zM132.832.6v3.2h7.008L134.688 23h3.52l5.184-19.328V.6h-10.56z" transform="translate(0 379)" id="Class-of-2017" fill="#FFF"/><path d="M.256 3.8h3.68V23h3.52V3.8h3.68V.6H.256v3.2zm15.936 9.6h4V23h3.584V.6h-3.584v9.6h-4V.6h-3.52V23h3.52v-9.6zM26.176.6v17.056c0 3.584 1.792 5.632 5.248 5.632 3.456 0 5.248-2.048 5.248-5.632V.6h-3.328v17.28c0 1.6-.704 2.176-1.824 2.176s-1.824-.576-1.824-2.176V.6h-3.52zM50.016 23h-3.584c-.192-.576-.32-.928-.32-2.752v-3.52c0-2.08-.704-2.848-2.304-2.848h-1.216V23h-3.52V.6h5.312C48.032.6 49.6 2.296 49.6 5.752v1.76c0 2.304-.736 3.776-2.304 4.512v.064c1.76.736 2.336 2.4 2.336 4.736v3.456c0 1.088.032 1.888.384 2.72zM44.288 3.8h-1.696v6.88h1.376c1.312 0 2.112-.576 2.112-2.368V6.104c0-1.6-.544-2.304-1.792-2.304zm7.2 2.176c0 2.56.928 4.416 3.872 7.008 2.304 2.016 3.008 3.232 3.008 4.864 0 1.6-.704 2.176-1.824 2.176s-1.824-.576-1.824-2.176v-1.6h-3.328v1.376c0 3.584 1.792 5.632 5.248 5.632 3.456 0 5.248-2.048 5.248-5.632 0-2.56-.928-4.416-3.872-7.008-2.304-2.016-3.008-3.232-3.008-4.864 0-1.6.64-2.208 1.76-2.208s1.76.608 1.76 2.208v.928h3.328v-.704c0-3.584-1.76-5.632-5.184-5.632-3.424 0-5.184 2.048-5.184 5.632zM63.904 23V.6h5.568c3.52 0 5.248 1.952 5.248 5.536v11.328c0 3.584-1.728 5.536-5.248 5.536h-5.568zm5.504-19.2h-1.984v16h1.984c1.12 0 1.792-.576 1.792-2.176V5.976c0-1.6-.672-2.176-1.792-2.176zM84.736.6L88.32 23h-3.552l-.608-4.064h-4.32L79.232 23H76L79.584.6h5.152zm-2.784 3.968l-1.664 11.328h3.392L82.016 4.568h-.064zM91.68 23v-7.424L87.232.6h3.68l2.656 10.208h.064L96.288.6h3.36L95.2 15.576V23h-3.52zM113.824.6l3.584 22.4h-3.552l-.608-4.064h-4.32L108.32 23h-3.232L108.672.6h5.152zm-2.784 3.968l-1.664 11.328h3.392l-1.664-11.328h-.064zM124.224.6c3.52 0 5.248 1.952 5.248 5.536v2.912c0 3.584-1.728 5.536-5.248 5.536h-1.664V23h-3.52V.6h5.184zm0 3.2h-1.664v7.584h1.664c1.12 0 1.728-.512 1.728-2.112v-3.36c0-1.6-.608-2.112-1.728-2.112zM142.048 23h-3.584c-.192-.576-.32-.928-.32-2.752v-3.52c0-2.08-.704-2.848-2.304-2.848h-1.216V23h-3.52V.6h5.312c3.648 0 5.216 1.696 5.216 5.152v1.76c0 2.304-.736 3.776-2.304 4.512v.064c1.76.736 2.336 2.4 2.336 4.736v3.456c0 1.088.032 1.888.384 2.72zM136.32 3.8h-1.696v6.88H136c1.312 0 2.112-.576 2.112-2.368V6.104c0-1.6-.544-2.304-1.792-2.304zm7.648 19.2h3.52V.6h-3.52V23zm6.08 0h9.312v-3.2h-5.792V.6h-3.52V23zm22.784-16.896c0 2.4-.768 4.16-3.456 7.008-2.624 2.752-3.52 4.64-3.52 7.136V23h10.176v-3.2h-6.656c-.032-.16-.032-.32-.032-.48 0-1.184.576-2.24 2.656-4.48 3.264-3.488 4.352-5.888 4.352-8.864 0-3.584-1.792-5.632-5.248-5.632-3.456 0-5.248 2.048-5.248 5.632v2.176h3.328v-2.4c0-1.6.704-2.208 1.824-2.208s1.824.544 1.824 2.56zM178.304.6v3.2h7.008L180.16 23h3.52l5.184-19.328V.6h-10.56z" transform="translate(180 379)" id="thursday-april-27" fill="#FFF"/><g id="Marina-84,-fort-laud" transform="translate(1 435)" fill="#FFF"><path d="M8.56.5H.145V39h5.28V11.775h.11L9.935 39h5.72l4.07-27.61h.11V39h5.72V.5H17.14l-4.07 27.335h-.11L8.56.5zm34.815 0l6.16 38.5H43.43l-1.045-6.985H34.96L33.915 39H28.36L34.52.5h8.855zM38.59 7.32l-2.86 19.47h5.83L38.7 7.32h-.11zM71.15 39h-6.16c-.33-.99-.55-1.595-.55-4.73v-6.05c0-3.575-1.21-4.895-3.96-4.895h-2.09V39h-6.05V.5h9.13c6.27 0 8.965 2.915 8.965 8.855v3.025c0 3.96-1.265 6.49-3.96 7.755v.11c3.025 1.265 4.015 4.125 4.015 8.14v5.94c0 1.87.055 3.245.66 4.675zM61.305 6H58.39v11.825h2.365c2.255 0 3.63-.99 3.63-4.07V9.96c0-2.75-.935-3.96-3.08-3.96zM74.45 39h6.05V.5h-6.05V39zm23.375 0h6.215V.5h-5.39v23.045h-.11L92.435.5h-7.59V39h5.445V11.115h.11L97.825 39zM121.805.5l6.16 38.5h-6.105l-1.045-6.985h-7.425L112.345 39h-5.555L112.95.5h8.855zm-4.785 6.82l-2.86 19.47h5.83l-2.86-19.47h-.11zm40.425 22.44c0 6.16-3.355 9.68-9.46 9.68s-9.46-3.52-9.46-9.68v-3.025c0-3.685 1.1-6.49 3.74-7.975v-.11c-2.53-1.375-3.74-3.905-3.74-7.7V9.74c0-6.16 3.355-9.68 9.46-9.68s9.46 3.52 9.46 9.68v1.21c0 3.795-1.265 6.325-3.74 7.7v.11c2.64 1.485 3.74 4.29 3.74 7.975v3.025zm-12.87-.165c0 3.41 1.485 4.345 3.41 4.345s3.355-.935 3.41-4.345V26.02c0-3.025-1.265-4.345-3.41-4.345-2.145 0-3.41 1.32-3.41 4.345v3.575zm0-19.635v2.145c0 3.08 1.43 4.07 3.41 4.07 1.925 0 3.41-.99 3.41-4.07V9.96c0-3.465-1.485-4.4-3.41-4.4s-3.41.935-3.41 4.4zm15.07 22.055v-5.5l11-26.015h6.6v26.015h2.86v5.5h-2.86V39h-6.05v-6.985h-11.55zm5.555-5.5h5.995V12.27h-.11L165.2 26.515zM185.165 39l-1.595 5.5h2.475l2.64-6.105V33.17h-5.83V39h2.31zM207.66 6h9.955V.5H201.61V39h6.05V23.105h7.81v-5.5h-7.81V6zm18.425 3.355v20.79c0 2.75 1.21 3.795 3.135 3.795 1.925 0 3.135-1.045 3.135-3.795V9.355c0-2.75-1.21-3.795-3.135-3.795-1.925 0-3.135 1.045-3.135 3.795zm-6.05 20.405V9.74c0-6.16 3.245-9.68 9.185-9.68s9.185 3.52 9.185 9.68v20.02c0 6.16-3.245 9.68-9.185 9.68s-9.185-3.52-9.185-9.68zM261.12 39h-6.16c-.33-.99-.55-1.595-.55-4.73v-6.05c0-3.575-1.21-4.895-3.96-4.895h-2.09V39h-6.05V.5h9.13c6.27 0 8.965 2.915 8.965 8.855v3.025c0 3.96-1.265 6.49-3.96 7.755v.11c3.025 1.265 4.015 4.125 4.015 8.14v5.94c0 1.87.055 3.245.66 4.675zm-9.845-33h-2.915v11.825h2.365c2.255 0 3.63-.99 3.63-4.07V9.96c0-2.75-.935-3.96-3.08-3.96zm11.385 0h6.325v33h6.05V6h6.325V.5h-18.7V6zm29.865 33h16.005v-5.5h-9.955V.5h-6.05V39zM324.59.5l6.16 38.5h-6.105l-1.045-6.985h-7.425L315.13 39h-5.555l6.16-38.5h8.855zm-4.785 6.82l-2.86 19.47h5.83l-2.86-19.47h-.11zM333.28.5v29.315c0 6.16 3.08 9.68 9.02 9.68 5.94 0 9.02-3.52 9.02-9.68V.5h-5.72v29.7c0 2.75-1.21 3.74-3.135 3.74-1.925 0-3.135-.99-3.135-3.74V.5h-6.05zM355.445 39V.5h9.57c6.05 0 9.02 3.355 9.02 9.515v19.47c0 6.16-2.97 9.515-9.02 9.515h-9.57zm9.46-33h-3.41v27.5h3.41c1.925 0 3.08-.99 3.08-3.74V9.74c0-2.75-1.155-3.74-3.08-3.74zm19.03 0h10.45V.5h-16.5V39h16.5v-5.5h-10.45V22.225h8.305v-5.5h-8.305V6zm33 33h-6.16c-.33-.99-.55-1.595-.55-4.73v-6.05c0-3.575-1.21-4.895-3.96-4.895h-2.09V39h-6.05V.5h9.13c6.27 0 8.965 2.915 8.965 8.855v3.025c0 3.96-1.265 6.49-3.96 7.755v.11c3.025 1.265 4.015 4.125 4.015 8.14v5.94c0 1.87.055 3.245.66 4.675zM407.09 6h-2.915v11.825h2.365c2.255 0 3.63-.99 3.63-4.07V9.96c0-2.75-.935-3.96-3.08-3.96zm13.145 33V.5h9.57c6.05 0 9.02 3.355 9.02 9.515v19.47c0 6.16-2.97 9.515-9.02 9.515h-9.57zm9.46-33h-3.41v27.5h3.41c1.925 0 3.08-.99 3.08-3.74V9.74c0-2.75-1.155-3.74-3.08-3.74zM456.04.5L462.2 39h-6.105l-1.045-6.985h-7.425L446.58 39h-5.555l6.16-38.5h8.855zm-4.785 6.82l-2.86 19.47h5.83l-2.86-19.47h-.11zM465.005 39h16.005v-5.5h-9.955V.5h-6.05V39z"/><path id="e" d="M490.25 6h10.45V.5h-16.5V39h16.5v-5.5h-10.45V22.225h8.305v-5.5h-8.305z"/></g></g></g></svg>