<svg width="32" height="32" viewBox="0 0 32 32" xmlns="http://www.w3.org/2000/svg"><title>Fill 8</title><g id="Page-1" fill="none" fill-rule="evenodd"><g id="Design21" transform="translate(-540 -699)" fill="#FFF"><path d="M568 708a1 1 0 0 1-1 1h-4a1 1 0 0 1-1-1v-4a1 1 0 0 1 1-1h4a1 1 0 0 1 1 1v4zm0 18c0 .701-.3 1-1 1h-22c-.699 0-1-.299-1-1v-14l2.493.542a9.367 9.367 0 0 0-.413 2.745c0 5.318 4.454 9.634 9.943 9.634 5.493 0 9.945-4.316 9.945-9.634 0-.955-.145-1.875-.412-2.745L568 712v14zm-11.977-17.286c3.549 0 6.425 2.787 6.425 6.225 0 3.437-2.876 6.226-6.425 6.226-3.546 0-6.422-2.789-6.422-6.226 0-3.438 2.876-6.225 6.422-6.225zM568 699h-24c-2.259 0-4 1.741-4 4v24c0 2.258 1.741 4 4 4h24c2.258 0 4-1.742 4-4v-24c0-2.259-1.742-4-4-4z" id="Fill-8"/></g></g></svg>