<svg width="205" height="53" viewBox="0 0 205 53" xmlns="http://www.w3.org/2000/svg" xmlns:xlink="http://www.w3.org/1999/xlink"><title>Group 2</title><defs><path id="path-1" d="M.421.35h17.273v38.99H.42z"/><path id="path-3" d="M18.688.35H.418v39.053h18.27V.349z"/><path id="path-5" d="M.248.35h17.833v38.99H.248z"/></defs><g id="Page-1" fill="none" fill-rule="evenodd"><g id="Design21" transform="translate(-184 -30)"><g id="Group-2" transform="translate(184 30)"><path id="Rectangle" fill="#000" d="M0 0h205v53H0z"/><g id="Page-1" transform="translate(0 13)"><g id="Group-3" transform="translate(0 .248)" fill="#FFF"><path d="M13.718 33.112V6.578c0-.748-.125-1.235-.374-1.463-.25-.228-.749-.344-1.497-.344H5.674v30.147h6.173c.748 0 1.247-.114 1.497-.343.25-.227.374-.715.374-1.463zM0 .35h13.593c3.866 0 5.799 1.828 5.799 5.481v28.03c0 3.654-1.933 5.48-5.799 5.48H0V.35z" id="Fill-1"/></g><path id="Fill-4" fill="#FFF" d="M32.423 35.041H43.71v4.547H26.75V.598h16.523v4.546h-10.85v12.022h8.98v4.546h-8.98z"/><g id="Group-8" transform="translate(47.813 .248)"><mask id="mask-2" fill="#fff"><use xlink:href="#path-1"/></mask><path d="M6.033 6.702v6.354H.421V5.83C.421 2.177 2.355.35 6.221.35h5.362c3.907 0 5.862 1.828 5.862 5.481v3.924c0 2.907-.728 5.752-2.183 8.534L6.844 34.794h10.85v4.547H.484v-4.36l9.54-17.939c1.164-2.2 1.746-4.692 1.746-7.474V6.702c0-.747-.115-1.234-.343-1.463-.229-.228-.738-.343-1.527-.343H7.904c-.748 0-1.247.115-1.497.343-.249.229-.374.716-.374 1.463" id="Fill-6" fill="#9D7842" mask="url(#mask-2)"/></g><path id="Fill-9" fill="#9D7842" d="M79.723.597v38.992H74.05V5.144h-4.49V.597z"/><g id="Group-13" transform="translate(86.662 .248)"><mask id="mask-4" fill="#fff"><use xlink:href="#path-3"/></mask><path d="M18.688 11.748h-5.674v-5.17c0-.748-.125-1.235-.374-1.464-.25-.228-.748-.343-1.497-.343h-3.18c-.748 0-1.247.115-1.496.343-.25.229-.375.716-.375 1.464v26.596c0 .748.125 1.236.375 1.464.249.229.748.343 1.496.343h3.18c.749 0 1.247-.114 1.497-.343.25-.228.374-.716.374-1.464v-9.53H9.896v-4.36h8.792V33.86c0 3.696-1.933 5.543-5.799 5.543H6.217c-3.866 0-5.799-1.847-5.799-5.543V5.83c0-3.653 1.933-5.48 5.8-5.48h6.671c3.866 0 5.799 1.827 5.799 5.48v5.918z" id="Fill-11" fill="#FFF" mask="url(#mask-4)"/></g><path id="Fill-14" fill="#FFF" d="M126.3.597h5.175v38.992h-5.674l-8.23-28.154v28.154h-5.176V.597h5.924l7.98 27.344z"/><path id="Fill-16" fill="#FFF" d="M144.819 35.041h11.286v4.547h-16.96V.598h16.523v4.546h-10.85v12.022h8.98v4.546h-8.98z"/><path d="M167.328 5.144v14.201h5.487c.749 0 1.247-.113 1.497-.342.25-.228.374-.716.374-1.464V6.95c0-.747-.125-1.235-.374-1.463-.25-.228-.748-.343-1.497-.343h-5.487zm0 18.686v15.758h-5.612V.598h12.783c3.866 0 5.799 1.827 5.799 5.48v12.209c0 3.156-1.393 4.961-4.178 5.418l6.173 15.883h-6.048l-5.862-15.758h-3.055z" id="Fill-18" fill="#FFF"/><g id="Group-22" transform="translate(186.472 .248)"><mask id="mask-6" fill="#fff"><use xlink:href="#path-5"/></mask><path d="M12.344 32.987v-9.53c0-.747-.114-1.234-.342-1.463-.229-.228-.717-.343-1.466-.343H5.922c-3.783 0-5.674-1.847-5.674-5.543V5.83C.248 2.177 2.181.35 6.047.35h6.11c3.867 0 5.8 1.827 5.8 5.48v5.73h-5.675V6.704c0-.748-.124-1.236-.373-1.464-.25-.228-.749-.343-1.497-.343H7.793c-.748 0-1.247.115-1.496.343-.25.228-.375.716-.375 1.464v8.658c0 .747.125 1.235.375 1.463.249.23.748.343 1.496.343h4.551c3.824 0 5.737 1.828 5.737 5.481V33.86c0 3.654-1.954 5.48-5.86 5.48H6.17c-3.866 0-5.798-1.826-5.798-5.48v-5.731h5.674v4.858c0 .748.125 1.236.374 1.464.25.229.748.342 1.496.342h2.62c.748 0 1.236-.113 1.465-.342.228-.228.342-.716.342-1.464" id="Fill-20" fill="#FFF" mask="url(#mask-6)"/></g></g></g></g></g></svg>