<svg width="20" height="28" viewBox="0 0 20 28" xmlns="http://www.w3.org/2000/svg"><title>Shape</title><g id="Page-1" fill="none" fill-rule="evenodd"><g id="Design21" transform="translate(-875 -703)" fill="#FFF"><path d="M895.002 712.696c0-5.383-4.476-9.696-10-9.696-5.523 0-10 4.29-10 9.673 0 .086.01.184.014.184h-.014c-.131 6 7.089 15.262 10 17.955 2.91-2.693 10.13-11.955 10-17.955h-.014a.715.715 0 0 0 .014-.161zm-10-3.588c2.089 0 3.78 1.65 3.78 3.686s-1.691 3.684-3.78 3.684c-2.09 0-3.781-1.648-3.781-3.684 0-2.036 1.692-3.686 3.78-3.686z" id="Shape"/></g></g></svg>