<svg width="32" height="26" viewBox="0 0 32 26" xmlns="http://www.w3.org/2000/svg" xmlns:xlink="http://www.w3.org/1999/xlink"><title>Group 3</title><defs><path id="path-1" d="M31.993 0v26H0V0h31.993z"/></defs><g id="Page-1" fill="none" fill-rule="evenodd"><g id="Design21" transform="translate(-715 -705)"><g id="Group-3" transform="translate(715 705)"><mask id="mask-2" fill="#fff"><use xlink:href="#path-1"/></mask><path d="M31.993 3.077a13.06 13.06 0 0 1-3.77 1.033A6.575 6.575 0 0 0 31.11.48a13.135 13.135 0 0 1-4.168 1.592A6.557 6.557 0 0 0 22.15 0a6.562 6.562 0 0 0-6.562 6.563c0 .514.056 1.016.17 1.496C10.3 7.785 5.464 5.172 2.226 1.201a6.544 6.544 0 0 0-.888 3.3 6.564 6.564 0 0 0 2.92 5.464 6.528 6.528 0 0 1-2.973-.822v.082a6.568 6.568 0 0 0 5.264 6.437 6.606 6.606 0 0 1-2.963.113 6.57 6.57 0 0 0 6.13 4.558 13.168 13.168 0 0 1-8.15 2.81c-.53 0-1.053-.03-1.567-.09A18.59 18.59 0 0 0 10.062 26c12.073 0 18.675-10 18.675-18.675 0-.284-.008-.568-.019-.85a13.344 13.344 0 0 0 3.275-3.398" id="Fill-1" fill="#FFF" mask="url(#mask-2)"/></g></g></g></svg>