<?xml version="1.0" encoding="UTF-8"?>
<svg width="507px" height="480px" viewBox="0 0 507 480" version="1.1" xmlns="http://www.w3.org/2000/svg" xmlns:xlink="http://www.w3.org/1999/xlink">
    <!-- Generator: Sketch 42 (36781) - http://www.bohemiancoding.com/sketch -->
    <title>Group</title>
    <desc>Created with Sketch.</desc>
    <defs>
        <polygon id="path-1" points="74.8824396 0.4481625 0 0.4481625 0 75.6711975 0 150.894232 74.8824396 150.894232"></polygon>
        <polygon id="path-3" points="0.454148901 0.4481625 67.1530115 0.4481625 67.1530115 150.893955 0.454148901 150.893955 0.454148901 0.4481625"></polygon>
        <polygon id="path-5" points="40.0301604 0.4481625 0.783187912 0.4481625 0.783187912 150.893261 40.0301604 150.893261 40.0301604 0.4481625"></polygon>
        <polygon id="path-7" points="70.8733626 0.4481625 0.322505495 0.4481625 0.322505495 151.133021 70.8733626 151.133021 70.8733626 0.4481625"></polygon>
        <polygon id="path-9" points="74.4501154 150.893261 74.4501154 0.4481625 0.770676923 0.4481625 0.770676923 150.893261 74.4501154 150.893261"></polygon>
        <polygon id="path-11" points="0.246883516 55.8875 24.5960484 55.8875 24.5960484 0.1618925 0.246883516 0.1618925 0.246883516 55.8875"></polygon>
        <polygon id="path-13" points="0.336823626 55.8875 27.0046918 55.8875 27.0046918 0.16175375 0.336823626 0.16175375 0.336823626 55.8875"></polygon>
        <polygon id="path-15" points="0.226865934 55.8875 27.9651187 55.8875 27.9651187 0.1618925 0.226865934 0.1618925 0.226865934 55.8875"></polygon>
        <polygon id="path-17" points="0.865343407 55.8875 25.2145082 55.8875 25.2145082 0.1618925 0.865343407 0.1618925"></polygon>
        <polygon id="path-19" points="0.57772967 55.8875 33.129933 55.8875 33.129933 0.161615 0.57772967 0.161615"></polygon>
        <polygon id="path-21" points="0.769147802 55.8875 28.6839445 55.8875 28.6839445 0.16175375 0.769147802 0.16175375"></polygon>
        <polygon id="path-23" points="0 221.551838 505.384181 221.551838 505.384181 1.3875 0 1.3875"></polygon>
    </defs>
    <g id="Page-1" stroke="none" stroke-width="1" fill="none" fill-rule="evenodd">
        <g id="Design21" transform="translate(-387.000000, -170.000000)">
            <g id="Group" transform="translate(386.000000, 152.000000)">
                <text id="6pm-9pm" font-family="BebasNeue, Bebas Neue" font-size="32" font-weight="normal" fill="#FFFFFF">
                    <tspan x="415" y="420">6pm-9pm</tspan>
                </text>
                <text id="WE-INVITE-YOU-TO" font-family="BebasNeue, Bebas Neue" font-size="97" font-weight="normal" fill="#FFFFFF">
                    <tspan x="0" y="87">WE INVITE YOU TO</tspan>
                </text>
                <g id="Page-1" transform="translate(2.000000, 129.000000)">
                    <g id="Group-3" transform="translate(0.000000, 0.939337)">
                        <mask id="mask-2" fill="white">
                            <use xlink:href="#path-1"></use>
                        </mask>
                        <g id="Clip-2"></g>
                        <path d="M52.9701374,126.859958 L52.9701374,24.4818825 C52.9701374,21.5958825 52.4891593,19.71582 51.5272033,18.8319825 C50.562467,17.953695 48.6357747,17.5110825 45.7485165,17.5110825 L21.909522,17.5110825 L21.909522,133.830758 L45.7485165,133.830758 C48.6357747,133.830758 50.562467,133.39092 51.5272033,132.509858 C52.4891593,131.630183 52.9701374,129.745958 52.9701374,126.859958 L52.9701374,126.859958 Z M0,0.4476075 L52.4891593,0.4476075 C67.4175495,0.4476075 74.8824396,7.50027 74.8824396,21.5958825 L74.8824396,129.745957 C74.8824396,143.845732 67.4175495,150.894232 52.4891593,150.894232 L0,150.894232 L0,0.4476075 Z" id="Fill-1" fill="#FEFEFE" mask="url(#mask-2)"></path>
                    </g>
                    <polygon id="Fill-4" fill="#FEFEFE" points="125.202054 134.2878 168.78339 134.2878 168.78339 151.832737 103.289752 151.832737 103.289752 1.3875 167.097186 1.3875 167.097186 18.9296625 125.202054 18.9296625 125.202054 65.315175 159.875565 65.315175 159.875565 82.8573375 125.202054 82.8573375"></polygon>
                    <g id="Group-8" transform="translate(183.494505, 0.939337)">
                        <mask id="mask-4" fill="white">
                            <use xlink:href="#path-3"></use>
                        </mask>
                        <g id="Clip-7"></g>
                        <path d="M22.1259621,24.96168 L22.1259621,49.47603 L0.454148901,49.47603 L0.454148901,21.595605 C0.454148901,7.4999925 7.91903901,0.44733 22.8474291,0.44733 L43.554506,0.44733 C58.6413687,0.44733 66.1882753,7.4999925 66.1882753,21.595605 L66.1882753,36.73878 C66.1882753,47.9539425 63.376083,58.930455 57.7614291,69.664155 L25.2550995,133.349017 L67.1530115,133.349017 L67.1530115,150.893955 L0.694637912,150.893955 L0.694637912,134.070517 L37.5353302,64.85508 C42.0267753,56.3649675 44.2759731,46.753755 44.2759731,36.0158925 L44.2759731,24.96168 C44.2759731,22.07568 43.832528,20.1956175 42.9525885,19.314555 C42.0698687,18.4362675 40.1014731,17.99088 37.0543522,17.99088 L29.347583,17.99088 C26.4603247,17.99088 24.5336324,18.4362675 23.5688962,19.314555 C22.6069401,20.1956175 22.1259621,22.07568 22.1259621,24.96168" id="Fill-6" fill="#9D7842" mask="url(#mask-4)"></path>
                    </g>
                    <g id="Group-11" transform="translate(265.510989, 0.939337)">
                        <mask id="mask-6" fill="white">
                            <use xlink:href="#path-5"></use>
                        </mask>
                        <g id="Clip-10"></g>
                        <polygon id="Fill-9" fill="#9D7842" mask="url(#mask-6)" points="40.0301604 0.44802375 40.0301604 150.893261 18.1178582 150.893261 18.1178582 17.9901863 0.783187912 17.9901863 0.783187912 0.44802375"></polygon>
                    </g>
                    <g id="Group-14" transform="translate(333.626374, 0.939337)">
                        <mask id="mask-8" fill="white">
                            <use xlink:href="#path-7"></use>
                        </mask>
                        <g id="Clip-13"></g>
                        <path d="M70.8733626,44.4273337 L48.9610604,44.4273337 L48.9610604,24.4820212 C48.9610604,21.5960212 48.4800824,19.7159587 47.5153462,18.8321212 C46.5533901,17.9538337 44.6280879,17.5112212 41.7394396,17.5112212 L29.4592088,17.5112212 C26.5691703,17.5112212 24.642478,17.9538337 23.680522,18.8321212 C22.7157857,19.7159587 22.2348077,21.5960212 22.2348077,24.4820212 L22.2348077,127.100134 C22.2348077,129.984746 22.7157857,131.870359 23.680522,132.750034 C24.642478,133.631096 26.5691703,134.070934 29.4592088,134.070934 L41.7394396,134.070934 C44.6280879,134.070934 46.5533901,133.631096 47.5153462,132.750034 C48.4800824,131.870359 48.9610604,129.984746 48.9610604,127.100134 L48.9610604,90.3313837 L36.9213187,90.3313837 L36.9213187,73.5065587 L70.8733626,73.5065587 L70.8733626,129.744709 C70.8733626,144.006821 63.4084725,151.133021 48.4800824,151.133021 L22.7157857,151.133021 C7.7873956,151.133021 0.322505495,144.006821 0.322505495,129.744709 L0.322505495,21.5960212 C0.322505495,7.50040875 7.7873956,0.44774625 22.7157857,0.44774625 L48.4800824,0.44774625 C63.4084725,0.44774625 70.8733626,7.50040875 70.8733626,21.5960212 L70.8733626,44.4273337 Z" id="Fill-12" fill="#FEFEFE" mask="url(#mask-8)"></path>
                    </g>
                    <g id="Group-17" transform="translate(430.934066, 0.939337)">
                        <mask id="mask-10" fill="white">
                            <use xlink:href="#path-9"></use>
                        </mask>
                        <g id="Clip-16"></g>
                        <polygon id="Fill-15" fill="#FEFEFE" mask="url(#mask-10)" points="54.4650615 0.44802375 74.4506714 0.44802375 74.4506714 150.893261 52.5383692 150.893261 20.7562868 42.2644988 20.7562868 150.893261 0.770676923 150.893261 0.770676923 0.44802375 23.6449352 0.44802375 54.4650615 105.952136"></polygon>
                    </g>
                    <g id="Group-20" transform="translate(0.000000, 165.664337)">
                        <mask id="mask-12" fill="white">
                            <use xlink:href="#path-11"></use>
                        </mask>
                        <g id="Clip-19"></g>
                        <polygon id="Fill-18" fill="#FEFEFE" mask="url(#mask-12)" points="24.5960484 6.659555 8.36373516 6.659555 8.36373516 24.996755 21.2069604 24.996755 21.2069604 31.318205 8.36373516 31.318205 8.36373516 55.888055 0.246883516 55.888055 0.246883516 0.1618925 24.5960484 0.1618925"></polygon>
                    </g>
                    <path d="M37.5262945,202.144597 L47.2487231,202.144597 L42.1637011,172.768447 L37.5262945,202.144597 Z M50.5474538,221.55156 L48.3177176,208.645035 L36.5448769,208.645035 L34.4944648,221.55156 L26.4679703,221.55156 L36.3669429,165.826785 L48.0508165,165.826785 L58.6643055,221.55156 L50.5474538,221.55156 Z" id="Fill-21" fill="#FEFEFE"></path>
                    <g id="Group-25" transform="translate(63.945055, 165.664337)">
                        <mask id="mask-14" fill="white">
                            <use xlink:href="#path-13"></use>
                        </mask>
                        <g id="Clip-24"></g>
                        <path d="M18.8878401,0.16175375 L27.0046918,0.16175375 L27.0046918,48.0540912 C27.0046918,53.2766412 24.2077907,55.8879162 18.620939,55.8879162 L8.72057637,55.8879162 C3.13094451,55.8879162 0.336823626,53.2766412 0.336823626,48.0540912 L0.336823626,0.16175375 L8.45367527,0.16175375 L8.45367527,46.8067287 C8.45367527,47.8751037 8.63160934,48.5744038 8.98886758,48.9004662 C9.34612582,49.2265287 10.0592522,49.3902537 11.1282467,49.3902537 L16.2132687,49.3902537 C17.3406478,49.3902537 18.0704555,49.2265287 18.3971313,48.9004662 C18.7238071,48.5744038 18.8878401,47.8751037 18.8878401,46.8067287 L18.8878401,0.16175375 Z" id="Fill-23" fill="#FEFEFE" mask="url(#mask-14)"></path>
                    </g>
                    <g id="Group-28" transform="translate(107.038462, 165.664337)">
                        <mask id="mask-16" fill="white">
                            <use xlink:href="#path-15"></use>
                        </mask>
                        <g id="Clip-27"></g>
                        <path d="M19.848267,46.9844675 L19.848267,33.2759675 C19.848267,32.2075925 19.670333,31.5110675 19.3130747,31.185005 C18.9558165,30.8589425 18.2426901,30.6952175 17.1723055,30.6952175 L8.25336044,30.6952175 L8.25336044,49.566605 L17.1723055,49.566605 C18.2426901,49.566605 18.9558165,49.4042675 19.3130747,49.0768175 C19.670333,48.750755 19.848267,48.05423 19.848267,46.9844675 L19.848267,46.9844675 Z M19.848267,21.7930175 L19.848267,9.062705 C19.848267,7.9957175 19.670333,7.297805 19.3130747,6.9717425 C18.9558165,6.64568 18.2426901,6.481955 17.1723055,6.481955 L8.25336044,6.481955 L8.25336044,24.375155 L17.1723055,24.375155 C18.2426901,24.375155 18.9558165,24.21143 19.3130747,23.8853675 C19.670333,23.559305 19.848267,22.86278 19.848267,21.7930175 L19.848267,21.7930175 Z M0.226865934,0.1618925 L19.5813659,0.1618925 C25.1682176,0.1618925 27.9651187,2.774555 27.9651187,7.9957175 L27.9651187,22.149605 C27.9651187,25.2950675 26.7737945,27.1348925 24.3967066,27.6676925 C26.7737945,28.26293 27.9651187,29.9820425 27.9651187,32.83058 L27.9651187,48.05423 C27.9651187,53.27678 25.1682176,55.888055 19.5813659,55.888055 L0.226865934,55.888055 L0.226865934,0.1618925 Z" id="Fill-26" fill="#9D7842" mask="url(#mask-16)"></path>
                    </g>
                    <g id="Group-31" transform="translate(144.571429, 165.664337)">
                        <mask id="mask-18" fill="white">
                            <use xlink:href="#path-17"></use>
                        </mask>
                        <g id="Clip-30"></g>
                        <polygon id="Fill-29" fill="#9D7842" mask="url(#mask-18)" points="25.2145082 6.659555 8.98219505 6.659555 8.98219505 24.996755 21.8254203 24.996755 21.8254203 31.318205 8.98219505 31.318205 8.98219505 55.888055 0.865343407 55.888055 0.865343407 0.1618925 25.2145082 0.1618925"></polygon>
                    </g>
                    <path d="M183.037159,202.144597 L192.759588,202.144597 L187.674566,172.768447 L183.037159,202.144597 Z M196.058319,221.55156 L193.828582,208.645035 L182.057132,208.645035 L180.00533,221.55156 L171.978835,221.55156 L181.877808,165.826785 L193.561681,165.826785 L204.17517,221.55156 L196.058319,221.55156 Z" id="Fill-32" fill="#9D7842"></path>
                    <polygon id="Fill-34" fill="#FEFEFE" points="225.670162 215.054036 241.812118 215.054036 241.812118 221.551699 217.55331 221.551699 217.55331 165.825536 241.189348 165.825536 241.189348 172.324586 225.670162 172.324586 225.670162 189.505999 238.513387 189.505999 238.513387 196.003661 225.670162 196.003661"></polygon>
                    <g id="Group-38" transform="translate(244.659341, 165.664337)">
                        <mask id="mask-20" fill="white">
                            <use xlink:href="#path-19"></use>
                        </mask>
                        <g id="Clip-37"></g>
                        <polygon id="Fill-36" fill="#FEFEFE" mask="url(#mask-20)" points="21.1791582 27.4024025 33.129933 55.8877775 24.2151582 55.8877775 16.7210758 34.70204 9.22838352 55.8877775 0.57772967 55.8877775 12.3505703 27.4024025 1.37982308 0.161615 10.2987681 0.161615 16.7210758 20.191565 23.2295703 0.161615 31.9719714 0.161615"></polygon>
                    </g>
                    <g id="Group-41" transform="translate(282.192308, 165.664337)">
                        <mask id="mask-22" fill="white">
                            <use xlink:href="#path-21"></use>
                        </mask>
                        <g id="Clip-40"></g>
                        <polygon id="Fill-39" fill="#FEFEFE" mask="url(#mask-22)" points="20.6588401 0.16175375 28.6839445 0.16175375 28.6839445 55.8879163 20.6588401 55.8879163 20.6588401 31.4068663 8.79703242 31.4068663 8.79703242 55.8879163 0.769147802 55.8879163 0.769147802 0.16175375 8.79703242 0.16175375 8.79703242 24.9092038 20.6588401 24.9092038"></polygon>
                    </g>
                    <mask id="mask-24" fill="white">
                        <use xlink:href="#path-23"></use>
                    </mask>
                    <g id="Clip-43"></g>
                    <polygon id="Fill-42" fill="#FEFEFE" mask="url(#mask-24)" points="321.045879 221.551837 329.070984 221.551837 329.070984 165.825675 321.045879 165.825675"></polygon>
                    <path d="M358.859231,212.648805 L358.859231,198.940305 C358.859231,197.87193 358.681297,197.175405 358.324039,196.849343 C357.966781,196.52328 357.255045,196.359555 356.18327,196.359555 L347.265715,196.359555 L347.265715,215.230943 L356.18327,215.230943 C357.255045,215.230943 357.966781,215.068605 358.324039,214.741155 C358.681297,214.415093 358.859231,213.718568 358.859231,212.648805 L358.859231,212.648805 Z M358.859231,187.457355 L358.859231,174.727043 C358.859231,173.660055 358.681297,172.962143 358.324039,172.63608 C357.966781,172.310018 357.255045,172.146293 356.18327,172.146293 L347.265715,172.146293 L347.265715,190.039493 L356.18327,190.039493 C357.255045,190.039493 357.966781,189.875768 358.324039,189.549705 C358.681297,189.223643 358.859231,188.527118 358.859231,187.457355 L358.859231,187.457355 Z M339.23783,165.82623 L358.59372,165.82623 C364.180572,165.82623 366.976083,168.438893 366.976083,173.660055 L366.976083,187.813943 C366.976083,190.959405 365.784759,192.79923 363.407671,193.33203 C365.784759,193.927268 366.976083,195.64638 366.976083,198.494918 L366.976083,213.718568 C366.976083,218.941118 364.180572,221.552393 358.59372,221.552393 L339.23783,221.552393 L339.23783,165.82623 Z" id="Fill-44" fill="#FEFEFE" mask="url(#mask-24)"></path>
                    <polygon id="Fill-45" fill="#FEFEFE" mask="url(#mask-24)" points="376.607181 221.551837 384.632286 221.551837 384.632286 165.825675 376.607181 165.825675"></polygon>
                    <polygon id="Fill-46" fill="#FEFEFE" mask="url(#mask-24)" points="417.36562 165.826091 417.36562 172.323754 408.00045 172.323754 408.00045 221.552254 399.972565 221.552254 399.972565 172.323754 390.608785 172.323754 390.608785 165.826091"></polygon>
                    <polygon id="Fill-47" fill="#FEFEFE" mask="url(#mask-24)" points="423.341286 221.551837 431.36639 221.551837 431.36639 165.825675 423.341286 165.825675"></polygon>
                    <path d="M459.63914,212.471621 L459.63914,174.906446 C459.63914,173.836684 459.459816,173.140159 459.103948,172.812709 C458.74669,172.486646 458.032173,172.324309 456.963179,172.324309 L451.79058,172.324309 C450.718805,172.324309 450.02097,172.486646 449.694294,172.812709 C449.367618,173.140159 449.203585,173.836684 449.203585,174.906446 L449.203585,212.471621 C449.203585,213.538609 449.367618,214.237909 449.694294,214.563971 C450.02097,214.891421 450.718805,215.053759 451.79058,215.053759 L456.963179,215.053759 C458.032173,215.053759 458.74669,214.891421 459.103948,214.563971 C459.459816,214.237909 459.63914,213.538609 459.63914,212.471621 M449.471876,165.826646 L459.370849,165.826646 C464.899316,165.826646 467.664245,168.439309 467.664245,173.659084 L467.664245,213.718984 C467.664245,218.941534 464.899316,221.551421 459.370849,221.551421 L449.471876,221.551421 C443.882245,221.551421 441.086734,218.941534 441.086734,213.718984 L441.086734,173.659084 C441.086734,168.439309 443.882245,165.826646 449.471876,165.826646" id="Fill-48" fill="#FEFEFE" mask="url(#mask-24)"></path>
                    <polygon id="Fill-49" fill="#FEFEFE" mask="url(#mask-24)" points="496.649287 165.826091 504.051622 165.826091 504.051622 221.552254 495.93477 221.552254 484.16193 181.316141 484.16193 221.552254 476.759595 221.552254 476.759595 165.826091 485.233704 165.826091 496.649287 204.903641"></polygon>
                </g>
                <text id="Class-of-2017" font-family="BebasNeue, Bebas Neue" font-size="32" font-weight="normal" fill="#FFFFFF">
                    <tspan x="1" y="420">Class of 2017</tspan>
                </text>
                <text id="thursday-april-27" font-family="BebasNeue, Bebas Neue" font-size="32" font-weight="normal" fill="#FFFFFF">
                    <tspan x="181" y="420">thursday april 27</tspan>
                </text>
                <text id="Marina-84,-fort-laud" font-family="BebasNeue, Bebas Neue" font-size="53" font-weight="normal" letter-spacing="0.899999976" fill="#FFFFFF">
                    <tspan x="0" y="492">Marina 84, fort lauderdal</tspan>
                    <tspan x="488.369999" y="492">e</tspan>
                </text>
            </g>
        </g>
    </g>
</svg>