<?xml version="1.0" encoding="UTF-8"?>
<svg width="507px" height="480px" viewBox="0 0 507 480" version="1.1" xmlns="http://www.w3.org/2000/svg" xmlns:xlink="http://www.w3.org/1999/xlink">
    <!-- Generator: Sketch 43.2 (39069) - http://www.bohemiancoding.com/sketch -->
    <title>hero</title>
    <desc>Created with Sketch.</desc>
    <defs>
        <polygon id="path-1" points="74.8824396 0.4481625 0 0.4481625 0 75.6711975 0 150.894232 74.8824396 150.894232"></polygon>
        <polygon id="path-3" points="0.454148901 0.4481625 67.1530115 0.4481625 67.1530115 150.893955 0.454148901 150.893955"></polygon>
        <polygon id="path-5" points="40.0301604 0.4481625 0.783187912 0.4481625 0.783187912 150.893261 40.0301604 150.893261"></polygon>
        <polygon id="path-7" points="70.8733626 0.4481625 0.322505495 0.4481625 0.322505495 151.133021 70.8733626 151.133021"></polygon>
        <polygon id="path-9" points="74.4501154 150.893261 74.4501154 0.4481625 0.770676923 0.4481625 0.770676923 150.893261"></polygon>
        <polygon id="path-11" points="0.246883516 55.8875 24.5960484 55.8875 24.5960484 0.1618925 0.246883516 0.1618925"></polygon>
        <polygon id="path-13" points="0.336823626 55.8875 27.0046918 55.8875 27.0046918 0.16175375 0.336823626 0.16175375"></polygon>
        <polygon id="path-15" points="0.226865934 55.8875 27.9651187 55.8875 27.9651187 0.1618925 0.226865934 0.1618925"></polygon>
        <polygon id="path-17" points="0.865343407 55.8875 25.2145082 55.8875 25.2145082 0.1618925 0.865343407 0.1618925"></polygon>
        <polygon id="path-19" points="0.57772967 55.8875 33.129933 55.8875 33.129933 0.161615 0.57772967 0.161615"></polygon>
        <polygon id="path-21" points="0.769147802 55.8875 28.6839445 55.8875 28.6839445 0.16175375 0.769147802 0.16175375"></polygon>
        <polygon id="path-23" points="0 220.551838 505.384181 220.551838 505.384181 0.3875 0 0.3875"></polygon>
        <polygon id="path-25" points="0 220.551838 505.384181 220.551838 505.384181 0.3875 0 0.3875"></polygon>
        <polygon id="path-27" points="0 220.551838 505.384181 220.551838 505.384181 0.3875 0 0.3875"></polygon>
        <polygon id="path-29" points="0 220.551838 505.384181 220.551838 505.384181 0.3875 0 0.3875"></polygon>
        <polygon id="path-31" points="0 220.551838 505.384181 220.551838 505.384181 0.3875 0 0.3875"></polygon>
        <polygon id="path-33" points="0 220.551838 505.384181 220.551838 505.384181 0.3875 0 0.3875"></polygon>
        <polygon id="path-35" points="0 220.551838 505.384181 220.551838 505.384181 0.3875 0 0.3875"></polygon>
    </defs>
    <g id="Page-1" stroke="none" stroke-width="1" fill="none" fill-rule="evenodd">
        <g id="hero">
            <g id="6pm-9pm" transform="translate(415.000000, 379.000000)" fill="#FFFFFF">
                <path d="M0.056,17.624 L0.056,6.168 C0.056,2.392 1.784,0.344 5.432,0.344 C8.888,0.344 10.68,2.392 10.68,5.976 L10.68,6.552 L7.352,6.552 L7.352,5.752 C7.352,4.152 6.648,3.544 5.528,3.544 C4.28,3.544 3.576,4.152 3.576,6.296 L3.576,10.36 L3.64,10.36 C4.248,9.08 5.272,8.408 6.84,8.408 C9.432,8.408 10.744,10.232 10.744,13.528 L10.744,17.624 C10.744,21.208 8.856,23.256 5.4,23.256 C1.944,23.256 0.056,21.208 0.056,17.624 Z M5.4,11.608 C4.28,11.608 3.576,12.216 3.576,13.816 L3.576,17.848 C3.576,19.448 4.28,20.024 5.4,20.024 C6.52,20.024 7.224,19.448 7.224,17.848 L7.224,13.816 C7.224,12.216 6.52,11.608 5.4,11.608 Z M18.136,0.6 C21.656,0.6 23.384,2.552 23.384,6.136 L23.384,9.048 C23.384,12.632 21.656,14.584 18.136,14.584 L16.472,14.584 L16.472,23 L12.952,23 L12.952,0.6 L18.136,0.6 Z M18.136,3.8 L16.472,3.8 L16.472,11.384 L18.136,11.384 C19.256,11.384 19.864,10.872 19.864,9.272 L19.864,5.912 C19.864,4.312 19.256,3.8 18.136,3.8 Z M29.88,0.6 L24.984,0.6 L24.984,23 L28.056,23 L28.056,7.16 L28.12,7.16 L30.68,23 L34.008,23 L36.376,6.936 L36.44,6.936 L36.44,23 L39.768,23 L39.768,0.6 L34.872,0.6 L32.504,16.504 L32.44,16.504 L29.88,0.6 Z M42.168,13.4 L48.568,13.4 L48.568,10.2 L42.168,10.2 L42.168,13.4 Z M61.304,5.976 L61.304,17.432 C61.304,21.208 59.576,23.256 55.928,23.256 C52.472,23.256 50.68,21.208 50.68,17.624 L50.68,17.048 L54.008,17.048 L54.008,17.848 C54.008,19.448 54.712,20.056 55.832,20.056 C57.08,20.056 57.784,19.448 57.784,17.304 L57.784,13.24 L57.72,13.24 C57.112,14.52 56.088,15.192 54.52,15.192 C51.928,15.192 50.616,13.368 50.616,10.072 L50.616,5.976 C50.616,2.392 52.504,0.344 55.96,0.344 C59.416,0.344 61.304,2.392 61.304,5.976 Z M55.96,11.992 C57.08,11.992 57.784,11.384 57.784,9.784 L57.784,5.752 C57.784,4.152 57.08,3.576 55.96,3.576 C54.84,3.576 54.136,4.152 54.136,5.752 L54.136,9.784 C54.136,11.384 54.84,11.992 55.96,11.992 Z M68.824,0.6 C72.344,0.6 74.072,2.552 74.072,6.136 L74.072,9.048 C74.072,12.632 72.344,14.584 68.824,14.584 L67.16,14.584 L67.16,23 L63.64,23 L63.64,0.6 L68.824,0.6 Z M68.824,3.8 L67.16,3.8 L67.16,11.384 L68.824,11.384 C69.944,11.384 70.552,10.872 70.552,9.272 L70.552,5.912 C70.552,4.312 69.944,3.8 68.824,3.8 Z M80.568,0.6 L75.672,0.6 L75.672,23 L78.744,23 L78.744,7.16 L78.808,7.16 L81.368,23 L84.696,23 L87.064,6.936 L87.128,6.936 L87.128,23 L90.456,23 L90.456,0.6 L85.56,0.6 L83.192,16.504 L83.128,16.504 L80.568,0.6 Z"></path>
            </g>
            <g id="WE-INVITE-YOU-TO" fill="#FFFFFF">
                <path d="M30.428,69 L44.59,69 L52.156,1.1 L42.844,1.1 L37.412,55.032 L37.218,55.032 L31.98,1.1 L21.698,1.1 L16.654,54.644 L16.46,54.644 L10.834,1.1 L0.455,1.1 L8.021,69 L22.668,69 L26.451,32.819 L26.645,32.819 L30.428,69 Z M68.161,10.8 L86.591,10.8 L86.591,1.1 L57.491,1.1 L57.491,69 L86.591,69 L86.591,59.3 L68.161,59.3 L68.161,39.415 L82.808,39.415 L82.808,29.715 L68.161,29.715 L68.161,10.8 Z M108.222,69 L118.892,69 L118.892,1.1 L108.222,1.1 L108.222,69 Z M149.447,69 L160.408,69 L160.408,1.1 L150.902,1.1 L150.902,41.743 L150.708,41.743 L139.941,1.1 L126.555,1.1 L126.555,69 L136.158,69 L136.158,19.821 L136.352,19.821 L149.447,69 Z M176.025,1.1 L165.258,1.1 L175.734,69 L191.642,69 L202.118,1.1 L192.321,1.1 L184.27,56.487 L184.076,56.487 L176.025,1.1 Z M207.065,69 L217.735,69 L217.735,1.1 L207.065,1.1 L207.065,69 Z M222.391,10.8 L233.546,10.8 L233.546,69 L244.216,69 L244.216,10.8 L255.371,10.8 L255.371,1.1 L222.391,1.1 L222.391,10.8 Z M270.697,10.8 L289.127,10.8 L289.127,1.1 L260.027,1.1 L260.027,69 L289.127,69 L289.127,59.3 L270.697,59.3 L270.697,39.415 L285.344,39.415 L285.344,29.715 L270.697,29.715 L270.697,10.8 Z M320.749,69 L331.419,69 L331.419,46.496 L344.902,1.1 L334.717,1.1 L326.666,32.043 L326.472,32.043 L318.421,1.1 L307.266,1.1 L320.749,46.496 L320.749,69 Z M357.512,16.717 L357.512,53.383 C357.512,58.233 359.646,60.076 363.041,60.076 C366.436,60.076 368.57,58.233 368.57,53.383 L368.57,16.717 C368.57,11.867 366.436,10.024 363.041,10.024 C359.646,10.024 357.512,11.867 357.512,16.717 Z M346.842,52.704 L346.842,17.396 C346.842,6.532 352.565,0.324 363.041,0.324 C373.517,0.324 379.24,6.532 379.24,17.396 L379.24,52.704 C379.24,63.568 373.517,69.776 363.041,69.776 C352.565,69.776 346.842,63.568 346.842,52.704 Z M385.642,1.1 L385.642,52.801 C385.642,63.665 391.074,69.873 401.55,69.873 C412.026,69.873 417.458,63.665 417.458,52.801 L417.458,1.1 L407.37,1.1 L407.37,53.48 C407.37,58.33 405.236,60.076 401.841,60.076 C398.446,60.076 396.312,58.33 396.312,53.48 L396.312,1.1 L385.642,1.1 Z M436.664,10.8 L447.819,10.8 L447.819,69 L458.489,69 L458.489,10.8 L469.644,10.8 L469.644,1.1 L436.664,1.1 L436.664,10.8 Z M484.097,16.717 L484.097,53.383 C484.097,58.233 486.231,60.076 489.626,60.076 C493.021,60.076 495.155,58.233 495.155,53.383 L495.155,16.717 C495.155,11.867 493.021,10.024 489.626,10.024 C486.231,10.024 484.097,11.867 484.097,16.717 Z M473.427,52.704 L473.427,17.396 C473.427,6.532 479.15,0.324 489.626,0.324 C500.102,0.324 505.825,6.532 505.825,17.396 L505.825,52.704 C505.825,63.568 500.102,69.776 489.626,69.776 C479.15,69.776 473.427,63.568 473.427,52.704 Z"></path>
            </g>
            <g id="Page-1" transform="translate(1.000000, 111.000000)">
                <g id="Group-3" transform="translate(0.000000, 0.939337)">
                    <g id="Fill-1-Clipped">
                        <mask id="mask-2" fill="white">
                            <use xlink:href="#path-1"></use>
                        </mask>
                        <g id="path-1"></g>
                        <path d="M52.9701374,126.859958 L52.9701374,24.4818825 C52.9701374,21.5958825 52.4891593,19.71582 51.5272033,18.8319825 C50.562467,17.953695 48.6357747,17.5110825 45.7485165,17.5110825 L21.909522,17.5110825 L21.909522,133.830758 L45.7485165,133.830758 C48.6357747,133.830758 50.562467,133.39092 51.5272033,132.509858 C52.4891593,131.630183 52.9701374,129.745958 52.9701374,126.859958 L52.9701374,126.859958 Z M0,0.4476075 L52.4891593,0.4476075 C67.4175495,0.4476075 74.8824396,7.50027 74.8824396,21.5958825 L74.8824396,129.745957 C74.8824396,143.845732 67.4175495,150.894232 52.4891593,150.894232 L0,150.894232 L0,0.4476075 Z" id="Fill-1" fill="#FEFEFE" fill-rule="nonzero" mask="url(#mask-2)"></path>
                    </g>
                </g>
                <polygon id="Fill-4" fill="#FEFEFE" fill-rule="nonzero" points="125.202054 134.2878 168.78339 134.2878 168.78339 151.832737 103.289752 151.832737 103.289752 1.3875 167.097186 1.3875 167.097186 18.9296625 125.202054 18.9296625 125.202054 65.315175 159.875565 65.315175 159.875565 82.8573375 125.202054 82.8573375"></polygon>
                <g id="Group-8" transform="translate(183.494505, 0.939337)">
                    <g id="Fill-6-Clipped">
                        <mask id="mask-4" fill="white">
                            <use xlink:href="#path-3"></use>
                        </mask>
                        <g id="path-3"></g>
                        <path d="M22.1259621,24.96168 L22.1259621,49.47603 L0.454148901,49.47603 L0.454148901,21.595605 C0.454148901,7.4999925 7.91903901,0.44733 22.8474291,0.44733 L43.554506,0.44733 C58.6413687,0.44733 66.1882753,7.4999925 66.1882753,21.595605 L66.1882753,36.73878 C66.1882753,47.9539425 63.376083,58.930455 57.7614291,69.664155 L25.2550995,133.349017 L67.1530115,133.349017 L67.1530115,150.893955 L0.694637912,150.893955 L0.694637912,134.070517 L37.5353302,64.85508 C42.0267753,56.3649675 44.2759731,46.753755 44.2759731,36.0158925 L44.2759731,24.96168 C44.2759731,22.07568 43.832528,20.1956175 42.9525885,19.314555 C42.0698687,18.4362675 40.1014731,17.99088 37.0543522,17.99088 L29.347583,17.99088 C26.4603247,17.99088 24.5336324,18.4362675 23.5688962,19.314555 C22.6069401,20.1956175 22.1259621,22.07568 22.1259621,24.96168" id="Fill-6" fill="#9D7842" fill-rule="nonzero" mask="url(#mask-4)"></path>
                    </g>
                </g>
                <g id="Group-11" transform="translate(265.510989, 0.939337)">
                    <g id="Fill-9-Clipped">
                        <mask id="mask-6" fill="white">
                            <use xlink:href="#path-5"></use>
                        </mask>
                        <g id="path-5"></g>
                        <polygon id="Fill-9" fill="#9D7842" fill-rule="nonzero" mask="url(#mask-6)" points="40.0301604 0.44802375 40.0301604 150.893261 18.1178582 150.893261 18.1178582 17.9901863 0.783187912 17.9901863 0.783187912 0.44802375"></polygon>
                    </g>
                </g>
                <g id="Group-14" transform="translate(333.626374, 0.939337)">
                    <g id="Fill-12-Clipped">
                        <mask id="mask-8" fill="white">
                            <use xlink:href="#path-7"></use>
                        </mask>
                        <g id="path-7"></g>
                        <path d="M70.8733626,44.4273337 L48.9610604,44.4273337 L48.9610604,24.4820212 C48.9610604,21.5960212 48.4800824,19.7159587 47.5153462,18.8321212 C46.5533901,17.9538337 44.6280879,17.5112212 41.7394396,17.5112212 L29.4592088,17.5112212 C26.5691703,17.5112212 24.642478,17.9538337 23.680522,18.8321212 C22.7157857,19.7159587 22.2348077,21.5960212 22.2348077,24.4820212 L22.2348077,127.100134 C22.2348077,129.984746 22.7157857,131.870359 23.680522,132.750034 C24.642478,133.631096 26.5691703,134.070934 29.4592088,134.070934 L41.7394396,134.070934 C44.6280879,134.070934 46.5533901,133.631096 47.5153462,132.750034 C48.4800824,131.870359 48.9610604,129.984746 48.9610604,127.100134 L48.9610604,90.3313837 L36.9213187,90.3313837 L36.9213187,73.5065587 L70.8733626,73.5065587 L70.8733626,129.744709 C70.8733626,144.006821 63.4084725,151.133021 48.4800824,151.133021 L22.7157857,151.133021 C7.7873956,151.133021 0.322505495,144.006821 0.322505495,129.744709 L0.322505495,21.5960212 C0.322505495,7.50040875 7.7873956,0.44774625 22.7157857,0.44774625 L48.4800824,0.44774625 C63.4084725,0.44774625 70.8733626,7.50040875 70.8733626,21.5960212 L70.8733626,44.4273337 Z" id="Fill-12" fill="#FEFEFE" fill-rule="nonzero" mask="url(#mask-8)"></path>
                    </g>
                </g>
                <g id="Group-17" transform="translate(430.934066, 0.939337)">
                    <g id="Fill-15-Clipped">
                        <mask id="mask-10" fill="white">
                            <use xlink:href="#path-9"></use>
                        </mask>
                        <g id="path-9"></g>
                        <polygon id="Fill-15" fill="#FEFEFE" fill-rule="nonzero" mask="url(#mask-10)" points="54.4650615 0.44802375 74.4506714 0.44802375 74.4506714 150.893261 52.5383692 150.893261 20.7562868 42.2644988 20.7562868 150.893261 0.770676923 150.893261 0.770676923 0.44802375 23.6449352 0.44802375 54.4650615 105.952136"></polygon>
                    </g>
                </g>
                <g id="Group-20" transform="translate(0.000000, 165.664337)">
                    <g id="Fill-18-Clipped">
                        <mask id="mask-12" fill="white">
                            <use xlink:href="#path-11"></use>
                        </mask>
                        <g id="path-11"></g>
                        <polygon id="Fill-18" fill="#FEFEFE" fill-rule="nonzero" mask="url(#mask-12)" points="24.5960484 6.659555 8.36373516 6.659555 8.36373516 24.996755 21.2069604 24.996755 21.2069604 31.318205 8.36373516 31.318205 8.36373516 55.888055 0.246883516 55.888055 0.246883516 0.1618925 24.5960484 0.1618925"></polygon>
                    </g>
                </g>
                <path d="M37.5262945,202.144597 L47.2487231,202.144597 L42.1637011,172.768447 L37.5262945,202.144597 Z M50.5474538,221.55156 L48.3177176,208.645035 L36.5448769,208.645035 L34.4944648,221.55156 L26.4679703,221.55156 L36.3669429,165.826785 L48.0508165,165.826785 L58.6643055,221.55156 L50.5474538,221.55156 Z" id="Fill-21" fill="#FEFEFE" fill-rule="nonzero"></path>
                <g id="Group-25" transform="translate(63.945055, 165.664337)">
                    <g id="Fill-23-Clipped">
                        <mask id="mask-14" fill="white">
                            <use xlink:href="#path-13"></use>
                        </mask>
                        <g id="path-13"></g>
                        <path d="M18.8878401,0.16175375 L27.0046918,0.16175375 L27.0046918,48.0540912 C27.0046918,53.2766412 24.2077907,55.8879162 18.620939,55.8879162 L8.72057637,55.8879162 C3.13094451,55.8879162 0.336823626,53.2766412 0.336823626,48.0540912 L0.336823626,0.16175375 L8.45367527,0.16175375 L8.45367527,46.8067287 C8.45367527,47.8751037 8.63160934,48.5744038 8.98886758,48.9004662 C9.34612582,49.2265287 10.0592522,49.3902537 11.1282467,49.3902537 L16.2132687,49.3902537 C17.3406478,49.3902537 18.0704555,49.2265287 18.3971313,48.9004662 C18.7238071,48.5744038 18.8878401,47.8751037 18.8878401,46.8067287 L18.8878401,0.16175375 Z" id="Fill-23" fill="#FEFEFE" fill-rule="nonzero" mask="url(#mask-14)"></path>
                    </g>
                </g>
                <g id="Group-28" transform="translate(107.038462, 165.664337)">
                    <g id="Fill-26-Clipped">
                        <mask id="mask-16" fill="white">
                            <use xlink:href="#path-15"></use>
                        </mask>
                        <g id="path-15"></g>
                        <path d="M19.848267,46.9844675 L19.848267,33.2759675 C19.848267,32.2075925 19.670333,31.5110675 19.3130747,31.185005 C18.9558165,30.8589425 18.2426901,30.6952175 17.1723055,30.6952175 L8.25336044,30.6952175 L8.25336044,49.566605 L17.1723055,49.566605 C18.2426901,49.566605 18.9558165,49.4042675 19.3130747,49.0768175 C19.670333,48.750755 19.848267,48.05423 19.848267,46.9844675 L19.848267,46.9844675 Z M19.848267,21.7930175 L19.848267,9.062705 C19.848267,7.9957175 19.670333,7.297805 19.3130747,6.9717425 C18.9558165,6.64568 18.2426901,6.481955 17.1723055,6.481955 L8.25336044,6.481955 L8.25336044,24.375155 L17.1723055,24.375155 C18.2426901,24.375155 18.9558165,24.21143 19.3130747,23.8853675 C19.670333,23.559305 19.848267,22.86278 19.848267,21.7930175 L19.848267,21.7930175 Z M0.226865934,0.1618925 L19.5813659,0.1618925 C25.1682176,0.1618925 27.9651187,2.774555 27.9651187,7.9957175 L27.9651187,22.149605 C27.9651187,25.2950675 26.7737945,27.1348925 24.3967066,27.6676925 C26.7737945,28.26293 27.9651187,29.9820425 27.9651187,32.83058 L27.9651187,48.05423 C27.9651187,53.27678 25.1682176,55.888055 19.5813659,55.888055 L0.226865934,55.888055 L0.226865934,0.1618925 Z" id="Fill-26" fill="#9D7842" fill-rule="nonzero" mask="url(#mask-16)"></path>
                    </g>
                </g>
                <g id="Group-31" transform="translate(144.571429, 165.664337)">
                    <g id="Fill-29-Clipped">
                        <mask id="mask-18" fill="white">
                            <use xlink:href="#path-17"></use>
                        </mask>
                        <g id="path-17"></g>
                        <polygon id="Fill-29" fill="#9D7842" fill-rule="nonzero" mask="url(#mask-18)" points="25.2145082 6.659555 8.98219505 6.659555 8.98219505 24.996755 21.8254203 24.996755 21.8254203 31.318205 8.98219505 31.318205 8.98219505 55.888055 0.865343407 55.888055 0.865343407 0.1618925 25.2145082 0.1618925"></polygon>
                    </g>
                </g>
                <path d="M183.037159,202.144597 L192.759588,202.144597 L187.674566,172.768447 L183.037159,202.144597 Z M196.058319,221.55156 L193.828582,208.645035 L182.057132,208.645035 L180.00533,221.55156 L171.978835,221.55156 L181.877808,165.826785 L193.561681,165.826785 L204.17517,221.55156 L196.058319,221.55156 Z" id="Fill-32" fill="#9D7842" fill-rule="nonzero"></path>
                <polygon id="Fill-34" fill="#FEFEFE" fill-rule="nonzero" points="225.670162 215.054036 241.812118 215.054036 241.812118 221.551699 217.55331 221.551699 217.55331 165.825536 241.189348 165.825536 241.189348 172.324586 225.670162 172.324586 225.670162 189.505999 238.513387 189.505999 238.513387 196.003661 225.670162 196.003661"></polygon>
                <g id="Group-38" transform="translate(244.659341, 165.664337)">
                    <g id="Fill-36-Clipped">
                        <mask id="mask-20" fill="white">
                            <use xlink:href="#path-19"></use>
                        </mask>
                        <g id="path-19"></g>
                        <polygon id="Fill-36" fill="#FEFEFE" fill-rule="nonzero" mask="url(#mask-20)" points="21.1791582 27.4024025 33.129933 55.8877775 24.2151582 55.8877775 16.7210758 34.70204 9.22838352 55.8877775 0.57772967 55.8877775 12.3505703 27.4024025 1.37982308 0.161615 10.2987681 0.161615 16.7210758 20.191565 23.2295703 0.161615 31.9719714 0.161615"></polygon>
                    </g>
                </g>
                <g id="Group-41" transform="translate(282.192308, 165.664337)">
                    <g id="Fill-39-Clipped">
                        <mask id="mask-22" fill="white">
                            <use xlink:href="#path-21"></use>
                        </mask>
                        <g id="path-21"></g>
                        <polygon id="Fill-39" fill="#FEFEFE" fill-rule="nonzero" mask="url(#mask-22)" points="20.6588401 0.16175375 28.6839445 0.16175375 28.6839445 55.8879163 20.6588401 55.8879163 20.6588401 31.4068663 8.79703242 31.4068663 8.79703242 55.8879163 0.769147802 55.8879163 0.769147802 0.16175375 8.79703242 0.16175375 8.79703242 24.9092038 20.6588401 24.9092038"></polygon>
                    </g>
                </g>
                <g id="Fill-42-Clipped" transform="translate(0.000000, 1.000000)">
                    <mask id="mask-24" fill="white">
                        <use xlink:href="#path-23"></use>
                    </mask>
                    <g id="path-23"></g>
                    <polygon id="Fill-42" fill="#FEFEFE" fill-rule="nonzero" mask="url(#mask-24)" points="321.045879 220.551837 329.070984 220.551837 329.070984 164.825675 321.045879 164.825675"></polygon>
                </g>
                <g id="Fill-44-Clipped" transform="translate(0.000000, 1.000000)">
                    <mask id="mask-26" fill="white">
                        <use xlink:href="#path-25"></use>
                    </mask>
                    <g id="path-23"></g>
                    <path d="M358.859231,211.648805 L358.859231,197.940305 C358.859231,196.87193 358.681297,196.175405 358.324039,195.849343 C357.966781,195.52328 357.255045,195.359555 356.18327,195.359555 L347.265715,195.359555 L347.265715,214.230943 L356.18327,214.230943 C357.255045,214.230943 357.966781,214.068605 358.324039,213.741155 C358.681297,213.415093 358.859231,212.718568 358.859231,211.648805 L358.859231,211.648805 Z M358.859231,186.457355 L358.859231,173.727043 C358.859231,172.660055 358.681297,171.962143 358.324039,171.63608 C357.966781,171.310018 357.255045,171.146293 356.18327,171.146293 L347.265715,171.146293 L347.265715,189.039493 L356.18327,189.039493 C357.255045,189.039493 357.966781,188.875768 358.324039,188.549705 C358.681297,188.223643 358.859231,187.527118 358.859231,186.457355 L358.859231,186.457355 Z M339.23783,164.82623 L358.59372,164.82623 C364.180572,164.82623 366.976083,167.438893 366.976083,172.660055 L366.976083,186.813943 C366.976083,189.959405 365.784759,191.79923 363.407671,192.33203 C365.784759,192.927268 366.976083,194.64638 366.976083,197.494918 L366.976083,212.718568 C366.976083,217.941118 364.180572,220.552393 358.59372,220.552393 L339.23783,220.552393 L339.23783,164.82623 Z" id="Fill-44" fill="#FEFEFE" fill-rule="nonzero" mask="url(#mask-26)"></path>
                </g>
                <g id="Fill-45-Clipped" transform="translate(0.000000, 1.000000)">
                    <mask id="mask-28" fill="white">
                        <use xlink:href="#path-27"></use>
                    </mask>
                    <g id="path-23"></g>
                    <polygon id="Fill-45" fill="#FEFEFE" fill-rule="nonzero" mask="url(#mask-28)" points="376.607181 220.551837 384.632286 220.551837 384.632286 164.825675 376.607181 164.825675"></polygon>
                </g>
                <g id="Fill-46-Clipped" transform="translate(0.000000, 1.000000)">
                    <mask id="mask-30" fill="white">
                        <use xlink:href="#path-29"></use>
                    </mask>
                    <g id="path-23"></g>
                    <polygon id="Fill-46" fill="#FEFEFE" fill-rule="nonzero" mask="url(#mask-30)" points="417.36562 164.826091 417.36562 171.323754 408.00045 171.323754 408.00045 220.552254 399.972565 220.552254 399.972565 171.323754 390.608785 171.323754 390.608785 164.826091"></polygon>
                </g>
                <g id="Fill-47-Clipped" transform="translate(0.000000, 1.000000)">
                    <mask id="mask-32" fill="white">
                        <use xlink:href="#path-31"></use>
                    </mask>
                    <g id="path-23"></g>
                    <polygon id="Fill-47" fill="#FEFEFE" fill-rule="nonzero" mask="url(#mask-32)" points="423.341286 220.551837 431.36639 220.551837 431.36639 164.825675 423.341286 164.825675"></polygon>
                </g>
                <g id="Fill-48-Clipped" transform="translate(0.000000, 1.000000)">
                    <mask id="mask-34" fill="white">
                        <use xlink:href="#path-33"></use>
                    </mask>
                    <g id="path-23"></g>
                    <path d="M459.63914,211.471621 L459.63914,173.906446 C459.63914,172.836684 459.459816,172.140159 459.103948,171.812709 C458.74669,171.486646 458.032173,171.324309 456.963179,171.324309 L451.79058,171.324309 C450.718805,171.324309 450.02097,171.486646 449.694294,171.812709 C449.367618,172.140159 449.203585,172.836684 449.203585,173.906446 L449.203585,211.471621 C449.203585,212.538609 449.367618,213.237909 449.694294,213.563971 C450.02097,213.891421 450.718805,214.053759 451.79058,214.053759 L456.963179,214.053759 C458.032173,214.053759 458.74669,213.891421 459.103948,213.563971 C459.459816,213.237909 459.63914,212.538609 459.63914,211.471621 M449.471876,164.826646 L459.370849,164.826646 C464.899316,164.826646 467.664245,167.439309 467.664245,172.659084 L467.664245,212.718984 C467.664245,217.941534 464.899316,220.551421 459.370849,220.551421 L449.471876,220.551421 C443.882245,220.551421 441.086734,217.941534 441.086734,212.718984 L441.086734,172.659084 C441.086734,167.439309 443.882245,164.826646 449.471876,164.826646" id="Fill-48" fill="#FEFEFE" fill-rule="nonzero" mask="url(#mask-34)"></path>
                </g>
                <g id="Fill-49-Clipped" transform="translate(0.000000, 1.000000)">
                    <mask id="mask-36" fill="white">
                        <use xlink:href="#path-35"></use>
                    </mask>
                    <g id="path-23"></g>
                    <polygon id="Fill-49" fill="#FEFEFE" fill-rule="nonzero" mask="url(#mask-36)" points="496.649287 164.826091 504.051622 164.826091 504.051622 220.552254 495.93477 220.552254 484.16193 180.316141 484.16193 220.552254 476.759595 220.552254 476.759595 164.826091 485.233704 164.826091 496.649287 203.903641"></polygon>
                </g>
            </g>
            <g id="Class-of-2017" transform="translate(0.000000, 379.000000)" fill="#FFFFFF">
                <path d="M8.16,14.648 L8.16,17.848 C8.16,19.448 7.456,20.024 6.336,20.024 C5.216,20.024 4.512,19.448 4.512,17.848 L4.512,5.752 C4.512,4.152 5.216,3.544 6.336,3.544 C7.456,3.544 8.16,4.152 8.16,5.752 L8.16,8.152 L11.488,8.152 L11.488,5.976 C11.488,2.392 9.696,0.344 6.24,0.344 C2.784,0.344 0.992,2.392 0.992,5.976 L0.992,17.624 C0.992,21.208 2.784,23.256 6.24,23.256 C9.696,23.256 11.488,21.208 11.488,17.624 L11.488,14.648 L8.16,14.648 Z M13.632,23 L22.944,23 L22.944,19.8 L17.152,19.8 L17.152,0.6 L13.632,0.6 L13.632,23 Z M32.288,0.6 L35.872,23 L32.32,23 L31.712,18.936 L27.392,18.936 L26.784,23 L23.552,23 L27.136,0.6 L32.288,0.6 Z M29.504,4.568 L27.84,15.896 L31.232,15.896 L29.568,4.568 L29.504,4.568 Z M37.056,5.976 C37.056,8.536 37.984,10.392 40.928,12.984 C43.232,15 43.936,16.216 43.936,17.848 C43.936,19.448 43.232,20.024 42.112,20.024 C40.992,20.024 40.288,19.448 40.288,17.848 L40.288,16.248 L36.96,16.248 L36.96,17.624 C36.96,21.208 38.752,23.256 42.208,23.256 C45.664,23.256 47.456,21.208 47.456,17.624 C47.456,15.064 46.528,13.208 43.584,10.616 C41.28,8.6 40.576,7.384 40.576,5.752 C40.576,4.152 41.216,3.544 42.336,3.544 C43.456,3.544 44.096,4.152 44.096,5.752 L44.096,6.68 L47.424,6.68 L47.424,5.976 C47.424,2.392 45.664,0.344 42.24,0.344 C38.816,0.344 37.056,2.392 37.056,5.976 Z M49.024,5.976 C49.024,8.536 49.952,10.392 52.896,12.984 C55.2,15 55.904,16.216 55.904,17.848 C55.904,19.448 55.2,20.024 54.08,20.024 C52.96,20.024 52.256,19.448 52.256,17.848 L52.256,16.248 L48.928,16.248 L48.928,17.624 C48.928,21.208 50.72,23.256 54.176,23.256 C57.632,23.256 59.424,21.208 59.424,17.624 C59.424,15.064 58.496,13.208 55.552,10.616 C53.248,8.6 52.544,7.384 52.544,5.752 C52.544,4.152 53.184,3.544 54.304,3.544 C55.424,3.544 56.064,4.152 56.064,5.752 L56.064,6.68 L59.392,6.68 L59.392,5.976 C59.392,2.392 57.632,0.344 54.208,0.344 C50.784,0.344 49.024,2.392 49.024,5.976 Z M69.632,5.752 L69.632,17.848 C69.632,19.448 70.336,20.056 71.456,20.056 C72.576,20.056 73.28,19.448 73.28,17.848 L73.28,5.752 C73.28,4.152 72.576,3.544 71.456,3.544 C70.336,3.544 69.632,4.152 69.632,5.752 Z M66.112,17.624 L66.112,5.976 C66.112,2.392 68,0.344 71.456,0.344 C74.912,0.344 76.8,2.392 76.8,5.976 L76.8,17.624 C76.8,21.208 74.912,23.256 71.456,23.256 C68,23.256 66.112,21.208 66.112,17.624 Z M82.592,3.8 L88.384,3.8 L88.384,0.6 L79.072,0.6 L79.072,23 L82.592,23 L82.592,13.752 L87.136,13.752 L87.136,10.552 L82.592,10.552 L82.592,3.8 Z M102.016,6.104 C102.016,8.504 101.248,10.264 98.56,13.112 C95.936,15.864 95.04,17.752 95.04,20.248 L95.04,23 L105.216,23 L105.216,19.8 L98.56,19.8 C98.528,19.64 98.528,19.48 98.528,19.32 C98.528,18.136 99.104,17.08 101.184,14.84 C104.448,11.352 105.536,8.952 105.536,5.976 C105.536,2.392 103.744,0.344 100.288,0.344 C96.832,0.344 95.04,2.392 95.04,5.976 L95.04,8.152 L98.368,8.152 L98.368,5.752 C98.368,4.152 99.072,3.544 100.192,3.544 C101.312,3.544 102.016,4.088 102.016,6.104 Z M110.944,5.752 L110.944,17.848 C110.944,19.448 111.648,20.056 112.768,20.056 C113.888,20.056 114.592,19.448 114.592,17.848 L114.592,5.752 C114.592,4.152 113.888,3.544 112.768,3.544 C111.648,3.544 110.944,4.152 110.944,5.752 Z M107.424,17.624 L107.424,5.976 C107.424,2.392 109.312,0.344 112.768,0.344 C116.224,0.344 118.112,2.392 118.112,5.976 L118.112,17.624 C118.112,21.208 116.224,23.256 112.768,23.256 C109.312,23.256 107.424,21.208 107.424,17.624 Z M122.56,5.912 L125.28,5.912 L125.28,23 L128.8,23 L128.8,0.6 L126.432,0.6 C125.888,2.104 125.28,3.416 122.56,3.416 L122.56,5.912 Z M132.832,0.6 L132.832,3.8 L139.84,3.8 L134.688,23 L138.208,23 L143.392,3.672 L143.392,0.6 L132.832,0.6 Z"></path>
            </g>
            <g id="thursday-april-27" transform="translate(180.000000, 379.000000)" fill="#FFFFFF">
                <path d="M0.256,3.8 L3.936,3.8 L3.936,23 L7.456,23 L7.456,3.8 L11.136,3.8 L11.136,0.6 L0.256,0.6 L0.256,3.8 Z M16.192,13.4 L20.192,13.4 L20.192,23 L23.776,23 L23.776,0.6 L20.192,0.6 L20.192,10.2 L16.192,10.2 L16.192,0.6 L12.672,0.6 L12.672,23 L16.192,23 L16.192,13.4 Z M26.176,0.6 L26.176,17.656 C26.176,21.24 27.968,23.288 31.424,23.288 C34.88,23.288 36.672,21.24 36.672,17.656 L36.672,0.6 L33.344,0.6 L33.344,17.88 C33.344,19.48 32.64,20.056 31.52,20.056 C30.4,20.056 29.696,19.48 29.696,17.88 L29.696,0.6 L26.176,0.6 Z M50.016,23 L46.432,23 C46.24,22.424 46.112,22.072 46.112,20.248 L46.112,16.728 C46.112,14.648 45.408,13.88 43.808,13.88 L42.592,13.88 L42.592,23 L39.072,23 L39.072,0.6 L44.384,0.6 C48.032,0.6 49.6,2.296 49.6,5.752 L49.6,7.512 C49.6,9.816 48.864,11.288 47.296,12.024 L47.296,12.088 C49.056,12.824 49.632,14.488 49.632,16.824 L49.632,20.28 C49.632,21.368 49.664,22.168 50.016,23 Z M44.288,3.8 L42.592,3.8 L42.592,10.68 L43.968,10.68 C45.28,10.68 46.08,10.104 46.08,8.312 L46.08,6.104 C46.08,4.504 45.536,3.8 44.288,3.8 Z M51.488,5.976 C51.488,8.536 52.416,10.392 55.36,12.984 C57.664,15 58.368,16.216 58.368,17.848 C58.368,19.448 57.664,20.024 56.544,20.024 C55.424,20.024 54.72,19.448 54.72,17.848 L54.72,16.248 L51.392,16.248 L51.392,17.624 C51.392,21.208 53.184,23.256 56.64,23.256 C60.096,23.256 61.888,21.208 61.888,17.624 C61.888,15.064 60.96,13.208 58.016,10.616 C55.712,8.6 55.008,7.384 55.008,5.752 C55.008,4.152 55.648,3.544 56.768,3.544 C57.888,3.544 58.528,4.152 58.528,5.752 L58.528,6.68 L61.856,6.68 L61.856,5.976 C61.856,2.392 60.096,0.344 56.672,0.344 C53.248,0.344 51.488,2.392 51.488,5.976 Z M63.904,23 L63.904,0.6 L69.472,0.6 C72.992,0.6 74.72,2.552 74.72,6.136 L74.72,17.464 C74.72,21.048 72.992,23 69.472,23 L63.904,23 Z M69.408,3.8 L67.424,3.8 L67.424,19.8 L69.408,19.8 C70.528,19.8 71.2,19.224 71.2,17.624 L71.2,5.976 C71.2,4.376 70.528,3.8 69.408,3.8 Z M84.736,0.6 L88.32,23 L84.768,23 L84.16,18.936 L79.84,18.936 L79.232,23 L76,23 L79.584,0.6 L84.736,0.6 Z M81.952,4.568 L80.288,15.896 L83.68,15.896 L82.016,4.568 L81.952,4.568 Z M91.68,23 L91.68,15.576 L87.232,0.6 L90.912,0.6 L93.568,10.808 L93.632,10.808 L96.288,0.6 L99.648,0.6 L95.2,15.576 L95.2,23 L91.68,23 Z M113.824,0.6 L117.408,23 L113.856,23 L113.248,18.936 L108.928,18.936 L108.32,23 L105.088,23 L108.672,0.6 L113.824,0.6 Z M111.04,4.568 L109.376,15.896 L112.768,15.896 L111.104,4.568 L111.04,4.568 Z M124.224,0.6 C127.744,0.6 129.472,2.552 129.472,6.136 L129.472,9.048 C129.472,12.632 127.744,14.584 124.224,14.584 L122.56,14.584 L122.56,23 L119.04,23 L119.04,0.6 L124.224,0.6 Z M124.224,3.8 L122.56,3.8 L122.56,11.384 L124.224,11.384 C125.344,11.384 125.952,10.872 125.952,9.272 L125.952,5.912 C125.952,4.312 125.344,3.8 124.224,3.8 Z M142.048,23 L138.464,23 C138.272,22.424 138.144,22.072 138.144,20.248 L138.144,16.728 C138.144,14.648 137.44,13.88 135.84,13.88 L134.624,13.88 L134.624,23 L131.104,23 L131.104,0.6 L136.416,0.6 C140.064,0.6 141.632,2.296 141.632,5.752 L141.632,7.512 C141.632,9.816 140.896,11.288 139.328,12.024 L139.328,12.088 C141.088,12.824 141.664,14.488 141.664,16.824 L141.664,20.28 C141.664,21.368 141.696,22.168 142.048,23 Z M136.32,3.8 L134.624,3.8 L134.624,10.68 L136,10.68 C137.312,10.68 138.112,10.104 138.112,8.312 L138.112,6.104 C138.112,4.504 137.568,3.8 136.32,3.8 Z M143.968,23 L147.488,23 L147.488,0.6 L143.968,0.6 L143.968,23 Z M150.048,23 L159.36,23 L159.36,19.8 L153.568,19.8 L153.568,0.6 L150.048,0.6 L150.048,23 Z M172.832,6.104 C172.832,8.504 172.064,10.264 169.376,13.112 C166.752,15.864 165.856,17.752 165.856,20.248 L165.856,23 L176.032,23 L176.032,19.8 L169.376,19.8 C169.344,19.64 169.344,19.48 169.344,19.32 C169.344,18.136 169.92,17.08 172,14.84 C175.264,11.352 176.352,8.952 176.352,5.976 C176.352,2.392 174.56,0.344 171.104,0.344 C167.648,0.344 165.856,2.392 165.856,5.976 L165.856,8.152 L169.184,8.152 L169.184,5.752 C169.184,4.152 169.888,3.544 171.008,3.544 C172.128,3.544 172.832,4.088 172.832,6.104 Z M178.304,0.6 L178.304,3.8 L185.312,3.8 L180.16,23 L183.68,23 L188.864,3.672 L188.864,0.6 L178.304,0.6 Z"></path>
            </g>
            <g id="Marina-84,-fort-laud" transform="translate(1.000000, 435.000000)" fill="#FFFFFF">
                <path d="M8.56,0.5 L0.145,0.5 L0.145,39 L5.425,39 L5.425,11.775 L5.535,11.775 L9.935,39 L15.655,39 L19.725,11.39 L19.835,11.39 L19.835,39 L25.555,39 L25.555,0.5 L17.14,0.5 L13.07,27.835 L12.96,27.835 L8.56,0.5 Z M43.375,0.5 L49.535,39 L43.43,39 L42.385,32.015 L34.96,32.015 L33.915,39 L28.36,39 L34.52,0.5 L43.375,0.5 Z M38.59,7.32 L35.73,26.79 L41.56,26.79 L38.7,7.32 L38.59,7.32 Z M71.15,39 L64.99,39 C64.66,38.01 64.44,37.405 64.44,34.27 L64.44,28.22 C64.44,24.645 63.23,23.325 60.48,23.325 L58.39,23.325 L58.39,39 L52.34,39 L52.34,0.5 L61.47,0.5 C67.74,0.5 70.435,3.415 70.435,9.355 L70.435,12.38 C70.435,16.34 69.17,18.87 66.475,20.135 L66.475,20.245 C69.5,21.51 70.49,24.37 70.49,28.385 L70.49,34.325 C70.49,36.195 70.545,37.57 71.15,39 Z M61.305,6 L58.39,6 L58.39,17.825 L60.755,17.825 C63.01,17.825 64.385,16.835 64.385,13.755 L64.385,9.96 C64.385,7.21 63.45,6 61.305,6 Z M74.45,39 L80.5,39 L80.5,0.5 L74.45,0.5 L74.45,39 Z M97.825,39 L104.04,39 L104.04,0.5 L98.65,0.5 L98.65,23.545 L98.54,23.545 L92.435,0.5 L84.845,0.5 L84.845,39 L90.29,39 L90.29,11.115 L90.4,11.115 L97.825,39 Z M121.805,0.5 L127.965,39 L121.86,39 L120.815,32.015 L113.39,32.015 L112.345,39 L106.79,39 L112.95,0.5 L121.805,0.5 Z M117.02,7.32 L114.16,26.79 L119.99,26.79 L117.13,7.32 L117.02,7.32 Z M157.445,29.76 C157.445,35.92 154.09,39.44 147.985,39.44 C141.88,39.44 138.525,35.92 138.525,29.76 L138.525,26.735 C138.525,23.05 139.625,20.245 142.265,18.76 L142.265,18.65 C139.735,17.275 138.525,14.745 138.525,10.95 L138.525,9.74 C138.525,3.58 141.88,0.06 147.985,0.06 C154.09,0.06 157.445,3.58 157.445,9.74 L157.445,10.95 C157.445,14.745 156.18,17.275 153.705,18.65 L153.705,18.76 C156.345,20.245 157.445,23.05 157.445,26.735 L157.445,29.76 Z M144.575,29.595 C144.575,33.005 146.06,33.94 147.985,33.94 C149.91,33.94 151.34,33.005 151.395,29.595 L151.395,26.02 C151.395,22.995 150.13,21.675 147.985,21.675 C145.84,21.675 144.575,22.995 144.575,26.02 L144.575,29.595 Z M144.575,9.96 L144.575,12.105 C144.575,15.185 146.005,16.175 147.985,16.175 C149.91,16.175 151.395,15.185 151.395,12.105 L151.395,9.96 C151.395,6.495 149.91,5.56 147.985,5.56 C146.06,5.56 144.575,6.495 144.575,9.96 Z M159.645,32.015 L159.645,26.515 L170.645,0.5 L177.245,0.5 L177.245,26.515 L180.105,26.515 L180.105,32.015 L177.245,32.015 L177.245,39 L171.195,39 L171.195,32.015 L159.645,32.015 Z M165.2,26.515 L171.195,26.515 L171.195,12.27 L171.085,12.27 L165.2,26.515 Z M185.165,39 L183.57,44.5 L186.045,44.5 L188.685,38.395 L188.685,33.17 L182.855,33.17 L182.855,39 L185.165,39 Z M207.66,6 L217.615,6 L217.615,0.5 L201.61,0.5 L201.61,39 L207.66,39 L207.66,23.105 L215.47,23.105 L215.47,17.605 L207.66,17.605 L207.66,6 Z M226.085,9.355 L226.085,30.145 C226.085,32.895 227.295,33.94 229.22,33.94 C231.145,33.94 232.355,32.895 232.355,30.145 L232.355,9.355 C232.355,6.605 231.145,5.56 229.22,5.56 C227.295,5.56 226.085,6.605 226.085,9.355 Z M220.035,29.76 L220.035,9.74 C220.035,3.58 223.28,0.06 229.22,0.06 C235.16,0.06 238.405,3.58 238.405,9.74 L238.405,29.76 C238.405,35.92 235.16,39.44 229.22,39.44 C223.28,39.44 220.035,35.92 220.035,29.76 Z M261.12,39 L254.96,39 C254.63,38.01 254.41,37.405 254.41,34.27 L254.41,28.22 C254.41,24.645 253.2,23.325 250.45,23.325 L248.36,23.325 L248.36,39 L242.31,39 L242.31,0.5 L251.44,0.5 C257.71,0.5 260.405,3.415 260.405,9.355 L260.405,12.38 C260.405,16.34 259.14,18.87 256.445,20.135 L256.445,20.245 C259.47,21.51 260.46,24.37 260.46,28.385 L260.46,34.325 C260.46,36.195 260.515,37.57 261.12,39 Z M251.275,6 L248.36,6 L248.36,17.825 L250.725,17.825 C252.98,17.825 254.355,16.835 254.355,13.755 L254.355,9.96 C254.355,7.21 253.42,6 251.275,6 Z M262.66,6 L268.985,6 L268.985,39 L275.035,39 L275.035,6 L281.36,6 L281.36,0.5 L262.66,0.5 L262.66,6 Z M292.525,39 L308.53,39 L308.53,33.5 L298.575,33.5 L298.575,0.5 L292.525,0.5 L292.525,39 Z M324.59,0.5 L330.75,39 L324.645,39 L323.6,32.015 L316.175,32.015 L315.13,39 L309.575,39 L315.735,0.5 L324.59,0.5 Z M319.805,7.32 L316.945,26.79 L322.775,26.79 L319.915,7.32 L319.805,7.32 Z M333.28,0.5 L333.28,29.815 C333.28,35.975 336.36,39.495 342.3,39.495 C348.24,39.495 351.32,35.975 351.32,29.815 L351.32,0.5 L345.6,0.5 L345.6,30.2 C345.6,32.95 344.39,33.94 342.465,33.94 C340.54,33.94 339.33,32.95 339.33,30.2 L339.33,0.5 L333.28,0.5 Z M355.445,39 L355.445,0.5 L365.015,0.5 C371.065,0.5 374.035,3.855 374.035,10.015 L374.035,29.485 C374.035,35.645 371.065,39 365.015,39 L355.445,39 Z M364.905,6 L361.495,6 L361.495,33.5 L364.905,33.5 C366.83,33.5 367.985,32.51 367.985,29.76 L367.985,9.74 C367.985,6.99 366.83,6 364.905,6 Z M383.935,6 L394.385,6 L394.385,0.5 L377.885,0.5 L377.885,39 L394.385,39 L394.385,33.5 L383.935,33.5 L383.935,22.225 L392.24,22.225 L392.24,16.725 L383.935,16.725 L383.935,6 Z M416.935,39 L410.775,39 C410.445,38.01 410.225,37.405 410.225,34.27 L410.225,28.22 C410.225,24.645 409.015,23.325 406.265,23.325 L404.175,23.325 L404.175,39 L398.125,39 L398.125,0.5 L407.255,0.5 C413.525,0.5 416.22,3.415 416.22,9.355 L416.22,12.38 C416.22,16.34 414.955,18.87 412.26,20.135 L412.26,20.245 C415.285,21.51 416.275,24.37 416.275,28.385 L416.275,34.325 C416.275,36.195 416.33,37.57 416.935,39 Z M407.09,6 L404.175,6 L404.175,17.825 L406.54,17.825 C408.795,17.825 410.17,16.835 410.17,13.755 L410.17,9.96 C410.17,7.21 409.235,6 407.09,6 Z M420.235,39 L420.235,0.5 L429.805,0.5 C435.855,0.5 438.825,3.855 438.825,10.015 L438.825,29.485 C438.825,35.645 435.855,39 429.805,39 L420.235,39 Z M429.695,6 L426.285,6 L426.285,33.5 L429.695,33.5 C431.62,33.5 432.775,32.51 432.775,29.76 L432.775,9.74 C432.775,6.99 431.62,6 429.695,6 Z M456.04,0.5 L462.2,39 L456.095,39 L455.05,32.015 L447.625,32.015 L446.58,39 L441.025,39 L447.185,0.5 L456.04,0.5 Z M451.255,7.32 L448.395,26.79 L454.225,26.79 L451.365,7.32 L451.255,7.32 Z M465.005,39 L481.01,39 L481.01,33.5 L471.055,33.5 L471.055,0.5 L465.005,0.5 L465.005,39 Z"></path>
                <polygon id="e" points="490.25 6 500.7 6 500.7 0.5 484.2 0.5 484.2 39 500.7 39 500.7 33.5 490.25 33.5 490.25 22.225 498.555 22.225 498.555 16.725 490.25 16.725"></polygon>
            </g>
        </g>
    </g>
</svg>