<?xml version="1.0" encoding="UTF-8"?>
<svg width="32px" height="32px" viewBox="0 0 32 32" version="1.1" xmlns="http://www.w3.org/2000/svg" xmlns:xlink="http://www.w3.org/1999/xlink">
    <!-- Generator: Sketch 42 (36781) - http://www.bohemiancoding.com/sketch -->
    <title>Fill 8</title>
    <desc>Created with Sketch.</desc>
    <defs></defs>
    <g id="Page-1" stroke="none" stroke-width="1" fill="none" fill-rule="evenodd">
        <g id="Design21" transform="translate(-540.000000, -699.000000)" fill="#FFFFFF">
            <path d="M568,708 C568,708.553 567.553,709 567,709 L563,709 C562.447,709 562,708.553 562,708 L562,704 C562,703.447 562.447,703 563,703 L567,703 C567.553,703 568,703.447 568,704 L568,708 Z M568,726 C568,726.701 567.7,727 567,727 L545,727 C544.301,727 544,726.701 544,726 L544,712 L546.493,712.542 C546.227,713.412 546.08,714.332 546.08,715.287 C546.08,720.605 550.534,724.921 556.023,724.921 C561.516,724.921 565.968,720.605 565.968,715.287 C565.968,714.332 565.823,713.412 565.556,712.542 L568,712 L568,726 Z M556.023,708.714 C559.572,708.714 562.448,711.501 562.448,714.939 C562.448,718.376 559.572,721.165 556.023,721.165 C552.477,721.165 549.601,718.376 549.601,714.939 C549.601,711.501 552.477,708.714 556.023,708.714 L556.023,708.714 Z M568,699 L544,699 C541.741,699 540,700.741 540,703 L540,727 C540,729.258 541.741,731 544,731 L568,731 C570.258,731 572,729.258 572,727 L572,703 C572,700.741 570.258,699 568,699 L568,699 Z" id="Fill-8"></path>
        </g>
    </g>
</svg>