<?xml version="1.0" encoding="UTF-8"?>
<svg width="205px" height="53px" viewBox="0 0 205 53" version="1.1" xmlns="http://www.w3.org/2000/svg" xmlns:xlink="http://www.w3.org/1999/xlink">
    <!-- Generator: Sketch 42 (36781) - http://www.bohemiancoding.com/sketch -->
    <title>Group 2</title>
    <desc>Created with Sketch.</desc>
    <defs>
        <polygon id="path-1" points="0.421176385 0.349253731 17.6937711 0.349253731 17.6937711 39.3406567 0.421176385 39.3406567"></polygon>
        <polygon id="path-3" points="18.6876327 0.349253731 0.41812828 0.349253731 0.41812828 39.402806 18.6876327 39.402806 18.6876327 0.349253731"></polygon>
        <polygon id="path-5" points="0.24821137 0.349253731 18.0812391 0.349253731 18.0812391 39.3408358 0.24821137 39.3408358"></polygon>
    </defs>
    <g id="Page-1" stroke="none" stroke-width="1" fill="none" fill-rule="evenodd">
        <g id="Design21" transform="translate(-184.000000, -30.000000)">
            <g id="Group-2" transform="translate(184.000000, 30.000000)">
                <rect id="Rectangle" fill="#000000" x="0" y="3.55271368e-15" width="205" height="53"></rect>
                <g id="Page-1" transform="translate(0.000000, 13.000000)">
                    <g id="Group-3" transform="translate(0.000000, 0.247761)" fill="#FFFFFF">
                        <path d="M13.7177274,33.1121791 L13.7177274,6.57785075 C13.7177274,5.83038806 13.5934125,5.34262687 13.3435875,5.11456716 C13.0943601,4.88650746 12.5953076,4.77128358 11.8470277,4.77128358 L5.67431633,4.77128358 L5.67431633,34.9181493 L11.8470277,34.9181493 C12.5953076,34.9181493 13.0943601,34.8041194 13.3435875,34.5754627 C13.5934125,34.348 13.7177274,33.8596418 13.7177274,33.1121791 L13.7177274,33.1121791 Z M5.97667638e-05,0.34919403 L13.5934125,0.34919403 C17.4591268,0.34919403 19.391984,2.17725373 19.391984,5.83038806 L19.391984,33.8596418 C19.391984,37.5139701 17.4591268,39.3408358 13.5934125,39.3408358 L5.97667638e-05,39.3408358 L5.97667638e-05,0.34919403 Z" id="Fill-1"></path>
                    </g>
                    <polygon id="Fill-4" fill="#FFFFFF" points="32.4234694 35.0413731 43.7098251 35.0413731 43.7098251 39.5882388 26.7492128 39.5882388 26.7492128 0.59719403 43.27293 0.59719403 43.27293 5.1440597 32.4234694 5.1440597 32.4234694 17.1655522 41.4022303 17.1655522 41.4022303 21.7124179 32.4234694 21.7124179"></polygon>
                    <g id="Group-8" transform="translate(47.813411, 0.247761)">
                        <mask id="mask-2" fill="white">
                            <use xlink:href="#path-1"></use>
                        </mask>
                        <g id="Clip-7"></g>
                        <path d="M6.03327551,6.70244776 L6.03327551,13.0558806 L0.421176385,13.0558806 L0.421176385,5.83020896 C0.421176385,2.17707463 2.3546312,0.349014925 6.22034548,0.349014925 L11.5826195,0.349014925 C15.4895729,0.349014925 17.4445437,2.17707463 17.4445437,5.83020896 L17.4445437,9.75438806 C17.4445437,12.6612537 16.7165845,15.5060299 15.2618615,18.2875224 L6.84371283,34.793791 L17.6937711,34.793791 L17.6937711,39.3406567 L0.483931487,39.3406567 L0.483931487,34.9806567 L10.0239023,17.0421493 C11.1875612,14.8415522 11.7702872,12.350209 11.7702872,9.56752239 L11.7702872,6.70244776 C11.7702872,5.95498507 11.6549373,5.4678209 11.4266283,5.23916418 C11.1983192,5.01110448 10.6885087,4.89647761 9.89958746,4.89647761 L7.90397522,4.89647761 C7.15569534,4.89647761 6.65664286,5.01110448 6.40741545,5.23916418 C6.15818805,5.4678209 6.03327551,5.95498507 6.03327551,6.70244776" id="Fill-6" fill="#9D7842" mask="url(#mask-2)"></path>
                    </g>
                    <polygon id="Fill-9" fill="#9D7842" points="79.7232449 0.597014925 79.7232449 39.5886567 74.0489883 39.5886567 74.0489883 5.1438806 69.559309 5.1438806 69.559309 0.597014925"></polygon>
                    <g id="Group-13" transform="translate(86.661808, 0.247761)">
                        <mask id="mask-4" fill="white">
                            <use xlink:href="#path-3"></use>
                        </mask>
                        <g id="Clip-12"></g>
                        <path d="M18.6876327,11.7478806 L13.0139738,11.7478806 L13.0139738,6.57773134 C13.0139738,5.83026866 12.8890612,5.34250746 12.6398338,5.11444776 C12.3900087,4.88638806 11.8915539,4.77116418 11.1432741,4.77116418 L7.96308455,4.77116418 C7.21480466,4.77116418 6.71575219,4.88638806 6.46652478,5.11444776 C6.21729738,5.34250746 6.09238484,5.83026866 6.09238484,6.57773134 L6.09238484,33.1741493 C6.09238484,33.9216119 6.21729738,34.4099701 6.46652478,34.6380299 C6.71575219,34.8666866 7.21480466,34.9807164 7.96308455,34.9807164 L11.1432741,34.9807164 C11.8915539,34.9807164 12.3900087,34.8666866 12.6398338,34.6380299 C12.8890612,34.4099701 13.0139738,33.9216119 13.0139738,33.1741493 L13.0139738,23.644597 L9.89594169,23.644597 L9.89594169,19.284597 L18.6876327,19.284597 L18.6876327,33.8595224 C18.6876327,37.5562388 16.7553732,39.402806 12.8890612,39.402806 L6.21729738,39.402806 C2.35098542,39.402806 0.41812828,37.5562388 0.41812828,33.8595224 L0.41812828,5.83026866 C0.41812828,2.17713433 2.35098542,0.349074627 6.21729738,0.349074627 L12.8890612,0.349074627 C16.7553732,0.349074627 18.6876327,2.17713433 18.6876327,5.83026866 L18.6876327,11.7478806 Z" id="Fill-11" fill="#FFFFFF" mask="url(#mask-4)"></path>
                    </g>
                    <polygon id="Fill-14" fill="#FFFFFF" points="126.299902 0.597014925 131.475106 0.597014925 131.475106 39.5886567 125.801448 39.5886567 117.570966 11.4346269 117.570966 39.5886567 112.394567 39.5886567 112.394567 0.597014925 118.318649 0.597014925 126.299902 27.9408955"></polygon>
                    <polygon id="Fill-16" fill="#FFFFFF" points="144.818813 35.0413731 156.105169 35.0413731 156.105169 39.5882388 139.144557 39.5882388 139.144557 0.59719403 155.668274 0.59719403 155.668274 5.1440597 144.818813 5.1440597 144.818813 17.1655522 153.797574 17.1655522 153.797574 21.7124179 144.818813 21.7124179"></polygon>
                    <path d="M167.327694,5.144 L167.327694,19.345194 L172.815478,19.345194 C173.563758,19.345194 174.062213,19.2317612 174.312038,19.0025075 C174.561265,18.7750448 174.686178,18.2866866 174.686178,17.5392239 L174.686178,6.94997015 C174.686178,6.20250746 174.561265,5.71534328 174.312038,5.48668657 C174.062213,5.25862687 173.563758,5.144 172.815478,5.144 L167.327694,5.144 Z M167.327694,23.8299701 L167.327694,39.5881791 L161.715595,39.5881791 L161.715595,0.597134328 L174.49851,0.597134328 C178.364822,0.597134328 180.297679,2.42459701 180.297679,6.07773134 L180.297679,18.2866866 C180.297679,21.4425075 178.904516,23.2484776 176.119983,23.705194 L182.292694,39.5881791 L176.244895,39.5881791 L170.382971,23.8299701 L167.327694,23.8299701 Z" id="Fill-18" fill="#FFFFFF"></path>
                    <g id="Group-22" transform="translate(186.472303, 0.247761)">
                        <mask id="mask-6" fill="white">
                            <use xlink:href="#path-5"></use>
                        </mask>
                        <g id="Clip-21"></g>
                        <path d="M12.3444067,32.987403 L12.3444067,23.4572537 C12.3444067,22.709791 12.2296545,22.2226269 12.0019431,21.9939701 C11.7730364,21.7659104 11.284742,21.6512836 10.5364621,21.6512836 L5.92246793,21.6512836 C2.13923178,21.6512836 0.24821137,19.8041194 0.24821137,16.108 L0.24821137,5.83038806 C0.24821137,2.17725373 2.18106851,0.34919403 6.0467828,0.34919403 L12.1579344,0.34919403 C16.0236487,0.34919403 17.9565058,2.17725373 17.9565058,5.83038806 L17.9565058,11.5605373 L12.2822493,11.5605373 L12.2822493,6.70262687 C12.2822493,5.95516418 12.1579344,5.46740299 11.908707,5.23874627 C11.6588819,5.01128358 11.1604271,4.8960597 10.4121472,4.8960597 L7.79316764,4.8960597 C7.04488776,4.8960597 6.54583528,5.01128358 6.29660787,5.23874627 C6.0467828,5.46740299 5.92246793,5.95516418 5.92246793,6.70262687 L5.92246793,15.3605373 C5.92246793,16.108 6.0467828,16.5963582 6.29660787,16.8244179 C6.54583528,17.0530746 7.04488776,17.1665075 7.79316764,17.1665075 L12.3444067,17.1665075 C16.1682843,17.1665075 18.0814184,18.9945672 18.0814184,22.6482985 L18.0814184,33.8596418 C18.0814184,37.5139701 16.1270452,39.3408358 12.2200918,39.3408358 L6.17169534,39.3408358 C2.30538338,39.3408358 0.372526239,37.5139701 0.372526239,33.8596418 L0.372526239,28.1288955 L6.0467828,28.1288955 L6.0467828,32.987403 C6.0467828,33.7348657 6.17169534,34.2232239 6.42092274,34.4512836 C6.67074781,34.6799403 7.16920262,34.7933731 7.91748251,34.7933731 L10.5364621,34.7933731 C11.284742,34.7933731 11.7730364,34.6799403 12.0019431,34.4512836 C12.2296545,34.2232239 12.3444067,33.7348657 12.3444067,32.987403" id="Fill-20" fill="#FFFFFF" mask="url(#mask-6)"></path>
                    </g>
                </g>
            </g>
        </g>
    </g>
</svg>