<?xml version="1.0" encoding="UTF-8"?>
<svg width="20px" height="28px" viewBox="0 0 20 28" version="1.1" xmlns="http://www.w3.org/2000/svg" xmlns:xlink="http://www.w3.org/1999/xlink">
    <!-- Generator: Sketch 42 (36781) - http://www.bohemiancoding.com/sketch -->
    <title>Shape</title>
    <desc>Created with Sketch.</desc>
    <defs></defs>
    <g id="Page-1" stroke="none" stroke-width="1" fill="none" fill-rule="evenodd">
        <g id="Design21" transform="translate(-875.000000, -703.000000)" fill="#FFFFFF">
            <path d="M895.001759,712.696 C895.001759,707.313 890.525759,703 885.001759,703 C879.478759,703 875.001759,707.29 875.001759,712.673 C875.001759,712.759 875.012759,712.857 875.015759,712.857 L875.001759,712.857 C874.870759,718.857 882.090759,728.119 885.001759,730.812 C887.912759,728.119 895.132759,718.857 895.001759,712.857 L894.987759,712.857 C894.990759,712.856 895.001759,712.782 895.001759,712.696 L895.001759,712.696 Z M885.001759,709.108 C887.090759,709.108 888.782759,710.758 888.782759,712.794 C888.782759,714.83 887.090759,716.478 885.001759,716.478 C882.912759,716.478 881.220759,714.83 881.220759,712.794 C881.220759,710.758 882.912759,709.108 885.001759,709.108 L885.001759,709.108 Z" id="Shape"></path>
        </g>
    </g>
</svg>