<?xml version="1.0" encoding="UTF-8"?>
<svg width="32px" height="26px" viewBox="0 0 32 26" version="1.1" xmlns="http://www.w3.org/2000/svg" xmlns:xlink="http://www.w3.org/1999/xlink">
    <!-- Generator: Sketch 42 (36781) - http://www.bohemiancoding.com/sketch -->
    <title>Group 3</title>
    <desc>Created with Sketch.</desc>
    <defs>
        <polygon id="path-1" points="31.993 0.0001 31.993 26.0001 0.0002 26.0001 0.0002 0.0001 31.993 0.0001"></polygon>
    </defs>
    <g id="Page-1" stroke="none" stroke-width="1" fill="none" fill-rule="evenodd">
        <g id="Design21" transform="translate(-715.000000, -705.000000)">
            <g id="Group-3" transform="translate(715.000000, 705.000000)">
                <mask id="mask-2" fill="white">
                    <use xlink:href="#path-1"></use>
                </mask>
                <g id="Clip-2"></g>
                <path d="M31.9932,3.0771 C30.8162,3.5991 29.5522,3.9531 28.2232,4.1101 C29.5782,3.2991 30.6192,2.0131 31.1092,0.4801 C29.8412,1.2311 28.4362,1.7791 26.9412,2.0721 C25.7442,0.7971 24.0382,0.0001 22.1492,0.0001 C18.5242,0.0001 15.5872,2.9381 15.5872,6.5631 C15.5872,7.0771 15.6432,7.5791 15.7562,8.0591 C10.3012,7.7851 5.4652,5.1721 2.2262,1.2011 C1.6622,2.1711 1.3392,3.2981 1.3392,4.5011 C1.3392,6.7791 2.4982,8.7871 4.2582,9.9651 C3.1822,9.9301 2.1712,9.6361 1.2862,9.1431 C1.2852,9.1711 1.2852,9.1991 1.2852,9.2251 C1.2852,12.4061 3.5472,15.0591 6.5502,15.6621 C6.0002,15.8111 5.4202,15.8921 4.8212,15.8921 C4.3972,15.8921 3.9872,15.8511 3.5872,15.7751 C4.4212,18.3821 6.8462,20.2791 9.7172,20.3331 C7.4722,22.0931 4.6412,23.1431 1.5662,23.1431 C1.0362,23.1431 0.5142,23.1121 0.0002,23.0521 C2.9052,24.9131 6.3552,26.0001 10.0622,26.0001 C22.1352,26.0001 28.7372,15.9991 28.7372,7.3251 C28.7372,7.0411 28.7292,6.7571 28.7182,6.4751 C30.0002,5.5501 31.1122,4.3941 31.9932,3.0771" id="Fill-1" fill="#FFFFFF" mask="url(#mask-2)"></path>
            </g>
        </g>
    </g>
</svg>